<svg width="95" height="16" viewBox="0 0 95 16" fill="none" xmlns="http://www.w3.org/2000/svg">
<g clip-path="url(#clip0_144_1005)">
<path d="M3.63811 15.4643V14.4356C3.63811 14.0413 3.39804 13.7842 2.98654 13.7842C2.78083 13.7842 2.55794 13.8527 2.40362 14.0756C2.28366 13.887 2.11223 13.7842 1.85506 13.7842C1.68355 13.7842 1.5122 13.8355 1.37499 14.0241V13.8184H1.01495V15.4643H1.37499V14.5556C1.37499 14.2642 1.52931 14.127 1.76938 14.127C2.0093 14.127 2.12941 14.2813 2.12941 14.5556V15.4643H2.48945V14.5556C2.48945 14.2642 2.66079 14.127 2.88369 14.127C3.12376 14.127 3.24372 14.2813 3.24372 14.5556V15.4643H3.63811ZM8.96995 13.8184H8.3871V13.3213H8.02707V13.8184H7.70132V14.1441H8.02699V14.8985C8.02699 15.2758 8.18131 15.4986 8.59281 15.4986C8.74714 15.4986 8.91848 15.4472 9.0386 15.3786L8.93566 15.07C8.83281 15.1385 8.71285 15.1557 8.6271 15.1557C8.45567 15.1557 8.3871 15.0529 8.3871 14.8814V14.1441H8.96995V13.8184ZM12.0217 13.7841C11.816 13.7841 11.6789 13.887 11.5931 14.0241V13.8184H11.2331V15.4643H11.5931V14.5385C11.5931 14.2642 11.7131 14.1099 11.936 14.1099C12.0045 14.1099 12.0903 14.1271 12.1589 14.1442L12.2617 13.8013C12.1931 13.7842 12.0903 13.7842 12.0217 13.7842M7.40986 13.9557C7.23836 13.8356 6.99836 13.7842 6.74119 13.7842C6.32976 13.7842 6.05548 13.9899 6.05548 14.3157C6.05548 14.59 6.2612 14.7443 6.62123 14.7958L6.79265 14.8129C6.98126 14.8471 7.08412 14.8986 7.08412 14.9844C7.08412 15.1043 6.94697 15.1901 6.7069 15.1901C6.46691 15.1901 6.2783 15.1043 6.15826 15.0187L5.98684 15.2929C6.17544 15.4301 6.43262 15.4986 6.68972 15.4986C7.16979 15.4986 7.44415 15.2758 7.44415 14.9672C7.44415 14.6757 7.22125 14.5214 6.87833 14.47L6.7069 14.4528C6.55258 14.4356 6.43262 14.4014 6.43262 14.2986C6.43262 14.1786 6.55258 14.11 6.74119 14.11C6.94697 14.11 7.15268 14.1957 7.25554 14.2471L7.40986 13.9557ZM16.9765 13.7842C16.7707 13.7842 16.6336 13.8871 16.5478 14.0242V13.8185H16.1878V15.4644H16.5478V14.5386C16.5478 14.2643 16.6678 14.11 16.8907 14.11C16.9593 14.11 17.0451 14.1272 17.1136 14.1443L17.2165 13.8014C17.1479 13.7842 17.0451 13.7842 16.9765 13.7842ZM12.3817 14.6414C12.3817 15.1386 12.7246 15.4986 13.2561 15.4986C13.4961 15.4986 13.6676 15.4473 13.839 15.3101L13.6676 15.0187C13.5304 15.1215 13.3933 15.1729 13.2389 15.1729C12.9475 15.1729 12.7418 14.9672 12.7418 14.6414C12.7418 14.3329 12.9475 14.1271 13.2389 14.11C13.3933 14.11 13.5304 14.1614 13.6676 14.2643L13.839 13.9728C13.6676 13.8356 13.4961 13.7842 13.2561 13.7842C12.7246 13.7842 12.3817 14.1443 12.3817 14.6414ZM15.7078 14.6414V13.8185H15.3478V14.0242C15.2277 13.87 15.0563 13.7842 14.8334 13.7842C14.3705 13.7842 14.0105 14.1443 14.0105 14.6414C14.0105 15.1386 14.3705 15.4986 14.8334 15.4986C15.0734 15.4986 15.2449 15.413 15.3478 15.2586V15.4644H15.7078V14.6414ZM14.3876 14.6414C14.3876 14.35 14.5762 14.11 14.8848 14.11C15.1763 14.11 15.382 14.3329 15.382 14.6414C15.382 14.9329 15.1763 15.1729 14.8848 15.1729C14.5762 15.1557 14.3876 14.9329 14.3876 14.6414ZM10.0844 13.7842C9.60434 13.7842 9.26141 14.1271 9.26141 14.6414C9.26141 15.1558 9.60426 15.4986 10.1015 15.4986C10.3415 15.4986 10.5816 15.4301 10.7702 15.2758L10.5987 15.0187C10.4615 15.1215 10.2901 15.1901 10.1187 15.1901C9.8958 15.1901 9.67291 15.0872 9.62144 14.7957H10.8388V14.6586C10.8559 14.1271 10.5474 13.7842 10.0844 13.7842ZM10.0843 14.0928C10.3071 14.0928 10.4615 14.23 10.4958 14.4872H9.63855C9.67283 14.2643 9.82716 14.0928 10.0843 14.0928ZM19.0166 14.6414V13.167H18.6565V14.0242C18.5365 13.87 18.3651 13.7842 18.1422 13.7842C17.6793 13.7842 17.3193 14.1443 17.3193 14.6414C17.3193 15.1386 17.6793 15.4986 18.1422 15.4986C18.3823 15.4986 18.5537 15.413 18.6565 15.2586V15.4644H19.0166V14.6414ZM17.6965 14.6414C17.6965 14.35 17.885 14.11 18.1936 14.11C18.4851 14.11 18.6908 14.3329 18.6908 14.6414C18.6908 14.9329 18.4851 15.1729 18.1936 15.1729C17.885 15.1557 17.6965 14.9329 17.6965 14.6414ZM5.66101 14.6414V13.8185H5.30098V14.0242C5.18094 13.87 5.00952 13.7842 4.78662 13.7842C4.32374 13.7842 3.9637 14.1443 3.9637 14.6414C3.9637 15.1386 4.32374 15.4986 4.78662 15.4986C5.0267 15.4986 5.19812 15.413 5.30098 15.2586V15.4644H5.66101V14.6414ZM4.32374 14.6414C4.32374 14.35 4.51234 14.11 4.82091 14.11C5.11237 14.11 5.31816 14.3329 5.31816 14.6414C5.31816 14.9329 5.11237 15.1729 4.82091 15.1729C4.51234 15.1557 4.32374 14.9329 4.32374 14.6414Z" fill="#141515"/>
<path d="M7.28986 1.3201H12.6903V11.0239H7.28986V1.3201Z" fill="#FF5F00"/>
<path d="M7.63287 6.17202C7.63287 4.20043 8.55864 2.45166 9.98159 1.32009C8.93585 0.497173 7.61576 0 6.17563 0C2.76376 0 0.00354004 2.76022 0.00354004 6.17202C0.00354004 9.58373 2.76376 12.344 6.17556 12.344C7.61568 12.344 8.93578 11.8469 9.98159 11.0239C8.55864 9.90948 7.63287 8.1436 7.63287 6.17202Z" fill="#EB001B"/>
<path d="M19.9767 6.17202C19.9767 9.58373 17.2165 12.344 13.8047 12.344C12.3646 12.344 11.0445 11.8469 9.99866 11.0239C11.4388 9.89238 12.3475 8.1436 12.3475 6.17202C12.3475 4.20043 11.4216 2.45166 9.99866 1.32009C11.0444 0.497173 12.3646 0 13.8047 0C17.2165 0 19.9767 2.7774 19.9767 6.17202Z" fill="#F79E1B"/>
</g>
<g clip-path="url(#clip1_144_1005)">
<path d="M35.3435 6.59324C35.3321 7.49292 36.1453 7.99494 36.7579 8.29346C37.3872 8.5997 37.5986 8.79611 37.5961 9.07001C37.5915 9.48914 37.0941 9.67414 36.6287 9.68133C35.8168 9.69391 35.3447 9.46211 34.9694 9.2868L34.6769 10.6555C35.0534 10.829 35.7507 10.9803 36.4737 10.9869C38.171 10.9869 39.2814 10.1491 39.2874 8.85017C39.294 7.20159 37.0071 7.11035 37.0227 6.37348C37.0281 6.15004 37.2413 5.91161 37.7085 5.85099C37.9397 5.82036 38.5781 5.79692 39.3018 6.1302L39.5859 4.806C39.1967 4.66428 38.6964 4.52858 38.0736 4.52858C36.4762 4.52858 35.3526 5.37779 35.3435 6.59324ZM42.3154 4.64264C42.0055 4.64264 41.7443 4.82342 41.6277 5.10084L39.2033 10.8897H40.8993L41.2368 9.95695H43.3093L43.5051 10.8897H44.9999L43.6954 4.64264H42.3154ZM42.5526 6.3302L43.0421 8.67603H41.7016L42.5526 6.3302ZM33.2872 4.64272L31.9503 10.8896H33.5665L34.9027 4.64256L33.2872 4.64272ZM30.8964 4.64272L29.2142 8.89462L28.5338 5.27927C28.4539 4.87569 28.1386 4.64264 27.7884 4.64264H25.0386L25.0001 4.82405C25.5646 4.94654 26.206 5.14412 26.5946 5.35552C26.8324 5.48466 26.9003 5.59755 26.9784 5.90442L28.2672 10.8897H29.9751L32.5935 4.64264L30.8964 4.64272Z" fill="url(#paint0_linear_144_1005)"/>
</g>
<g clip-path="url(#clip2_144_1005)">
<path d="M69.9986 12.334C69.9986 14.0452 68.6051 15.4387 66.8939 15.4387H50.0016V3.14228C50.0016 1.43106 51.395 0.0375977 53.1063 0.0375977H69.9986V12.334Z" fill="white"/>
<path d="M64.498 9.18043H65.7814C65.8182 9.18043 65.9037 9.16825 65.9404 9.16825C66.1849 9.11935 66.3927 8.89931 66.3927 8.59373C66.3927 8.30041 66.1849 8.08037 65.9404 8.01928C65.9037 8.00702 65.8304 8.00702 65.7815 8.00702H64.4981L64.498 9.18043Z" fill="url(#paint1_linear_144_1005)"/>
<path d="M65.6349 1.07651C64.4125 1.07651 63.4102 2.06667 63.4102 3.30117V5.61137H66.5516C66.6249 5.61137 66.7105 5.61137 66.7716 5.62355C67.4805 5.66027 68.0061 6.02693 68.0061 6.66246C68.0061 7.16363 67.6517 7.59146 66.9916 7.67707V7.70144C67.7127 7.75034 68.2628 8.15372 68.2628 8.77706C68.2628 9.44938 67.6517 9.88939 66.8449 9.88939H63.398V14.412H66.6616C67.8839 14.412 68.8862 13.4219 68.8862 12.1873V1.07651H65.6349Z" fill="url(#paint2_linear_144_1005)"/>
<path d="M66.2337 6.80922C66.2337 6.51583 66.0259 6.32023 65.7814 6.28352C65.7571 6.28352 65.6959 6.27133 65.6593 6.27133H64.498V7.34695H65.6593C65.696 7.34695 65.7693 7.34695 65.7815 7.33476C66.026 7.29805 66.2338 7.10253 66.2338 6.80914" fill="url(#paint3_linear_144_1005)"/>
<path d="M53.3384 1.07651C52.1161 1.07651 51.1137 2.06667 51.1137 3.30117V8.7894C51.7372 9.0949 52.385 9.2905 53.0328 9.2905C53.8029 9.2905 54.2184 8.82604 54.2184 8.19043V5.5991H56.1253V8.17817C56.1253 9.18044 55.5019 9.99945 53.3873 9.99945C52.1039 9.99945 51.1016 9.71825 51.1016 9.71825V14.3997H54.3651C55.5874 14.3997 56.5898 13.4096 56.5898 12.1751V1.07666L53.3384 1.07651Z" fill="url(#paint4_linear_144_1005)"/>
<path d="M59.4866 1.07651C58.2643 1.07651 57.262 2.06667 57.262 3.30117V6.21026C57.8243 5.73354 58.8021 5.42796 60.3789 5.50131C61.2223 5.53802 62.1268 5.77025 62.1268 5.77025V6.71144C61.6745 6.47921 61.1368 6.27135 60.44 6.22245C59.2421 6.13691 58.521 6.72362 58.521 7.75034C58.521 8.78932 59.2421 9.37603 60.44 9.27823C61.1368 9.22934 61.6746 9.00937 62.1268 8.78932V9.73051C62.1268 9.73051 61.2345 9.96274 60.3789 9.99945C58.8021 10.0727 57.8243 9.76715 57.262 9.2905V14.4242H60.5256C61.7479 14.4242 62.7502 13.4341 62.7502 12.1995V1.07666L59.4866 1.07651Z" fill="url(#paint5_linear_144_1005)"/>
</g>
<g clip-path="url(#clip3_144_1005)">
<path d="M93.6667 14.4376H76.3333C75.9797 14.4376 75.6406 14.2971 75.3905 14.047C75.1405 13.797 75 13.4579 75 13.1042V7.49535H75.9606L76.1772 6.9709H76.6622L76.8783 7.49312H78.7683V7.0959L78.9372 7.4959H79.9183L80.0872 7.08924V7.49479H84.7833V6.63701H84.8722C84.9356 6.63924 84.9539 6.64479 84.9539 6.75035V7.4959H87.3833V7.29646C87.6317 7.42257 87.9244 7.49646 88.235 7.49646L88.2878 7.4959H88.285H89.3072L89.5261 6.97368H90.0111L90.225 7.4959H92.195V6.99924L92.4928 7.4959H94.0683V4.2159H92.5089V4.60312L92.2906 4.2159H90.6872V4.60312L90.4867 4.2159H88.3217C87.9936 4.19933 87.6668 4.26683 87.3722 4.41201L87.3839 4.40701V4.2159H85.8906V4.40701C85.7098 4.26454 85.4815 4.19639 85.2522 4.21646H85.2556H79.7983L79.4322 5.06368L79.0561 4.21646H77.3372V4.60368L77.1478 4.21646H75.6811L75.0017 5.77201V2.43868C75.0017 2.08506 75.1421 1.74592 75.3922 1.49587C75.6422 1.24582 75.9814 1.10535 76.335 1.10535H93.6683C94.022 1.10535 94.3611 1.24582 94.6111 1.49587C94.8612 1.74592 95.0017 2.08506 95.0017 2.43868V8.2609H93.9611C93.9444 8.25979 93.9244 8.25979 93.905 8.25979C93.6639 8.25979 93.44 8.33201 93.2533 8.4559L93.2578 8.45312V8.2609H91.7189C91.4785 8.24762 91.2406 8.31594 91.0439 8.45479L91.0472 8.45257V8.26035H88.2994V8.45257C88.0745 8.32571 87.8205 8.25948 87.5622 8.26035H87.5406H87.5417H85.7289V8.45257C85.4921 8.30086 85.211 8.23334 84.9311 8.2609L84.9361 8.26035H82.9078L82.4433 8.76257L82.0089 8.26035H78.9789V11.5426H81.9522L82.4306 11.0326L82.8811 11.5426H84.7139V10.7742H84.9694C85.2152 10.7838 85.4602 10.7428 85.6894 10.6537L85.6772 10.6581V11.5437H87.1883V10.6887H87.2611C87.3533 10.6887 87.3628 10.692 87.3628 10.7853V11.5442H91.955L92.0111 11.5453C92.2744 11.5453 92.52 11.4665 92.7244 11.3315L92.7194 11.3342V11.5442H94.1761L94.2456 11.5453C94.5183 11.5453 94.7778 11.4892 95.0133 11.3876L95.0006 11.3926V13.1048C95.0006 13.4584 94.8601 13.7976 94.61 14.0476C94.36 14.2976 94.0208 14.4381 93.6672 14.4381L93.6667 14.4376ZM86.725 11.0826H86.1594V8.72979H87.4572C87.6916 8.70807 87.9276 8.7475 88.1422 8.84424L88.1333 8.8409C88.3072 8.93646 88.4233 9.11868 88.4233 9.32757L88.4222 9.36479V9.36312L88.4228 9.38424C88.4228 9.65424 88.26 9.88646 88.0267 9.98757L88.0222 9.98924C88.1339 10.0292 88.2272 10.0976 88.2967 10.1859L88.2978 10.187C88.3762 10.3169 88.4091 10.4692 88.3911 10.6198L88.3917 10.6165V11.082H87.8272V10.7876C87.8539 10.6273 87.8218 10.4627 87.7367 10.3242L87.7383 10.327C87.6797 10.2825 87.6126 10.2503 87.5412 10.2325C87.4698 10.2146 87.3955 10.2114 87.3228 10.2231L87.3261 10.2226H86.725V11.082V11.0826ZM86.725 9.2159V9.74424H87.4083C87.5048 9.75315 87.6019 9.73588 87.6894 9.69424L87.6861 9.6959C87.7219 9.67282 87.7513 9.64115 87.7716 9.60379C87.792 9.56643 87.8027 9.52457 87.8028 9.48201L87.8022 9.46924C87.805 9.42677 87.7956 9.38496 87.7753 9.34759C87.7549 9.31022 87.7244 9.27939 87.6872 9.25868L87.6861 9.25813C87.6018 9.22042 87.5092 9.20511 87.4172 9.21368H87.4194L86.725 9.2159ZM81.7111 11.082H79.485V8.72979H81.7461L82.4378 9.5009L83.1528 8.72979H84.9489C85.5867 8.72979 85.8967 8.98368 85.8967 9.50479C85.8967 10.0353 85.5761 10.2931 84.9189 10.2931H84.2161V11.0815H83.1233L82.4311 10.3042L81.7111 11.082ZM83.6561 8.98201L82.7928 9.90979L83.6561 10.8676V8.98201ZM80.0456 10.1237V10.5915H81.4278L82.0667 9.90146L81.4522 9.2159H80.045V9.64368H81.2794V10.1231L80.0456 10.1237ZM84.2161 9.21646V9.81535H84.9422C85.1644 9.81535 85.2922 9.70201 85.2922 9.50424C85.2922 9.31535 85.1733 9.2159 84.9483 9.2159L84.2161 9.21646ZM94.2372 11.0831H93.1517V10.5776H94.2328C94.3137 10.5887 94.3957 10.5676 94.4611 10.5187L94.4606 10.5192C94.4814 10.4999 94.4981 10.4764 94.5095 10.4503C94.5208 10.4242 94.5267 10.396 94.5267 10.3676V10.3587C94.5267 10.3306 94.5206 10.3028 94.5088 10.2772C94.497 10.2517 94.4798 10.2291 94.4583 10.2109C94.4008 10.1694 94.3299 10.1507 94.2594 10.1587H94.2606L94.1567 10.1553C93.6489 10.142 93.0739 10.1265 93.0739 9.43035C93.0739 9.09146 93.2861 8.72979 93.88 8.72979H95.0006V9.2309H93.9756C93.8964 9.22204 93.8164 9.23796 93.7467 9.27646L93.7489 9.27535C93.7215 9.2934 93.6994 9.31851 93.685 9.34803C93.6707 9.37755 93.6645 9.4104 93.6672 9.44312V9.44257V9.44868C93.6672 9.48611 93.679 9.52259 93.701 9.55292C93.7229 9.58325 93.7539 9.60587 93.7894 9.61757L93.7906 9.61812C93.861 9.63984 93.9347 9.64887 94.0083 9.64479H94.0067L94.3117 9.65257C94.5416 9.62963 94.7713 9.69808 94.9511 9.84312L94.9494 9.84201C94.9661 9.85535 94.9806 9.86979 94.9933 9.8859L94.9939 9.88646L95.0006 10.782C94.9071 10.8912 94.7883 10.9757 94.6545 11.0281C94.5207 11.0805 94.3761 11.0992 94.2333 11.0826L94.2372 11.0831ZM92.0433 11.0831H90.9478V10.5776H92.0378C92.1193 10.5882 92.2019 10.5672 92.2683 10.5187L92.2672 10.5192C92.288 10.4998 92.3045 10.4763 92.3158 10.4502C92.327 10.4241 92.3328 10.396 92.3328 10.3676V10.362C92.3328 10.3334 92.3266 10.3052 92.3149 10.2791C92.3031 10.2531 92.2859 10.2298 92.2644 10.2109C92.2059 10.1693 92.1341 10.1507 92.0628 10.1587H92.0639L91.9606 10.1553C91.4544 10.142 90.88 10.1265 90.88 9.43035C90.88 9.09146 91.0911 8.72979 91.6839 8.72979H92.8106V9.2309H91.7794C91.7008 9.22213 91.6214 9.23806 91.5522 9.27646L91.5544 9.27535C91.5253 9.29543 91.502 9.32302 91.4872 9.35521C91.4725 9.3874 91.4666 9.42298 91.4704 9.45821C91.4741 9.49344 91.4873 9.52699 91.5086 9.55534C91.5298 9.58368 91.5583 9.60576 91.5911 9.61924L91.5922 9.61979C91.6636 9.64167 91.7383 9.6507 91.8128 9.64646H91.8111L92.1139 9.65424C92.345 9.63197 92.5757 9.70051 92.7572 9.84535L92.7556 9.84368C92.8166 9.91098 92.863 9.99021 92.8919 10.0764C92.9208 10.1625 92.9315 10.2537 92.9233 10.3442V10.3415C92.925 10.832 92.6278 11.082 92.0417 11.082L92.0433 11.0831ZM90.6111 11.0831H88.7333V8.72924H90.6094V9.21535H89.2944V9.64312H90.5789V10.1226H89.2944V10.5903L90.6111 10.5926V11.0815V11.0831ZM91.7056 7.03535H90.5606L90.3417 6.5109H89.1739L88.9617 7.03535H88.3039C88.0085 7.05092 87.7176 6.95785 87.4861 6.77368L87.4889 6.77535C87.3789 6.65397 87.2954 6.511 87.2438 6.35556C87.1921 6.20013 87.1734 6.03563 87.1889 5.87257L87.1883 5.87701C87.174 5.71095 87.1936 5.54371 87.246 5.38546C87.2983 5.22721 87.3823 5.08125 87.4928 4.95646L87.4917 4.95757C87.6083 4.85556 87.7447 4.77865 87.8924 4.73163C88.0401 4.6846 88.1958 4.66847 88.35 4.68424L88.3456 4.68368H88.89V5.18535H88.3567C88.2786 5.17529 88.1993 5.18258 88.1244 5.20668C88.0495 5.23078 87.9809 5.27111 87.9233 5.32479L87.9239 5.32424C87.8051 5.47635 87.7474 5.66736 87.7622 5.85979V5.85701C87.7445 6.05472 87.8001 6.25204 87.9183 6.41146L87.9167 6.40924C88.0271 6.4995 88.1685 6.54296 88.3106 6.53035H88.3083H88.5606L89.3556 4.68035H90.2L91.1517 6.90257V4.68035H92.0078L92.9956 6.31812V4.68035H93.5733V7.03146H92.7711L91.7044 5.2659V7.03146L91.7056 7.03535ZM89.7617 5.0809L89.3744 6.01868H90.1506L89.7617 5.0809ZM84.3178 7.03424H83.7556V4.68201H85.0489C85.285 4.65752 85.5233 4.69765 85.7383 4.79812L85.73 4.79479C85.8165 4.84261 85.8885 4.9127 85.9388 4.9978C85.989 5.08289 86.0155 5.17987 86.0156 5.27868L86.0144 5.31757V5.3159V5.33312C86.0145 5.46143 85.9775 5.58703 85.9079 5.69483C85.8384 5.80264 85.7392 5.88808 85.6222 5.9409L85.6178 5.94257C85.7294 5.98479 85.8233 6.05257 85.895 6.13924L85.8961 6.14035C85.9754 6.27067 86.0081 6.42403 85.9889 6.57535L85.9894 6.57201V7.03368H85.4222L85.42 6.73701V6.69257C85.4402 6.54751 85.4081 6.40001 85.3294 6.27646L85.3311 6.27924C85.2723 6.23601 85.2054 6.20487 85.1345 6.18761C85.0636 6.17035 84.9899 6.16731 84.9178 6.17868L84.9211 6.17812H84.3183V7.03368L84.3178 7.03424ZM84.3178 5.17146V5.69368H85C85.0964 5.70414 85.1937 5.68679 85.2806 5.64368L85.2778 5.64479C85.3134 5.62316 85.3428 5.59273 85.3632 5.55644C85.3837 5.52015 85.3944 5.47922 85.3944 5.43757L85.3939 5.42201C85.3967 5.3798 85.3871 5.33824 85.3663 5.30141C85.3455 5.26459 85.3143 5.23467 85.2767 5.21535L85.2756 5.21479C85.191 5.17852 85.0989 5.16327 85.0072 5.17035H85.0089L84.3178 5.17146ZM78.3644 7.03424H77.2222L77.0061 6.50979H75.835L75.6172 7.03424H75.0061L76.0133 4.68201H76.8483L77.8044 6.90812V4.68201H78.7217L79.4572 6.27701L80.1333 4.68201H81.0694V7.03312H80.4917L80.4906 5.19312L79.6756 7.03368H79.1822L78.365 5.19035V7.03368L78.3644 7.03424ZM76.4178 5.0809L76.035 6.01868H76.8028L76.4178 5.0809ZM86.9111 7.03368H86.3378V4.68201H86.9117V7.03312L86.9111 7.03368ZM83.3633 7.03368H81.4889V4.68201H83.3667V5.1709H82.0511V5.59479H83.335V6.07757H82.05V6.54757H83.3656V7.03312L83.3633 7.03368Z" fill="#016FD0"/>
</g>
<defs>
<linearGradient id="paint0_linear_144_1005" x1="944.469" y1="23.9424" x2="963.163" y2="-639.34" gradientUnits="userSpaceOnUse">
<stop stop-color="#222357"/>
<stop offset="1" stop-color="#254AA5"/>
</linearGradient>
<linearGradient id="paint1_linear_144_1005" x1="-44.4946" y1="66.8233" x2="504.794" y2="66.8233" gradientUnits="userSpaceOnUse">
<stop stop-color="#007940"/>
<stop offset="0.2285" stop-color="#00873F"/>
<stop offset="0.7433" stop-color="#40A737"/>
<stop offset="1" stop-color="#5CB531"/>
</linearGradient>
<linearGradient id="paint2_linear_144_1005" x1="64.4024" y1="667.317" x2="613.719" y2="667.317" gradientUnits="userSpaceOnUse">
<stop stop-color="#007940"/>
<stop offset="0.2285" stop-color="#00873F"/>
<stop offset="0.7433" stop-color="#40A737"/>
<stop offset="1" stop-color="#5CB531"/>
</linearGradient>
<linearGradient id="paint3_linear_144_1005" x1="-44.5107" y1="59.8995" x2="504.808" y2="59.8995" gradientUnits="userSpaceOnUse">
<stop stop-color="#007940"/>
<stop offset="0.2285" stop-color="#00873F"/>
<stop offset="0.7433" stop-color="#40A737"/>
<stop offset="1" stop-color="#5CB531"/>
</linearGradient>
<linearGradient id="paint4_linear_144_1005" x1="52.0675" y1="667.317" x2="609.848" y2="667.317" gradientUnits="userSpaceOnUse">
<stop stop-color="#1F286F"/>
<stop offset="0.4751" stop-color="#004E94"/>
<stop offset="0.8261" stop-color="#0066B1"/>
<stop offset="1" stop-color="#006FBC"/>
</linearGradient>
<linearGradient id="paint5_linear_144_1005" x1="54.1007" y1="667.312" x2="595.839" y2="667.312" gradientUnits="userSpaceOnUse">
<stop stop-color="#6C2C2F"/>
<stop offset="0.1735" stop-color="#882730"/>
<stop offset="0.5731" stop-color="#BE1833"/>
<stop offset="0.8585" stop-color="#DC0436"/>
<stop offset="1" stop-color="#E60039"/>
</linearGradient>
<clipPath id="clip0_144_1005">
<rect width="20" height="15.5415" fill="white"/>
</clipPath>
<clipPath id="clip1_144_1005">
<rect width="20" height="6.4843" fill="white" transform="translate(25 4.52856)"/>
</clipPath>
<clipPath id="clip2_144_1005">
<rect width="20" height="15.4664" fill="white" transform="translate(50 0.0375977)"/>
</clipPath>
<clipPath id="clip3_144_1005">
<rect width="20" height="13.3333" fill="white" transform="translate(75 1.104)"/>
</clipPath>
</defs>
</svg>
