<svg fill="none" height="18" viewBox="0 0 18 18" width="18" xmlns="http://www.w3.org/2000/svg"><path d="m9 16.5c-4.14225 0-7.5-3.3577-7.5-7.5 0-4.14225 3.35775-7.5 7.5-7.5 4.1423 0 7.5 3.35775 7.5 7.5 0 4.1423-3.3577 7.5-7.5 7.5zm0-1.5c1.5913 0 3.1174-.6321 4.2426-1.7574 1.1253-1.1252 1.7574-2.6513 1.7574-4.2426s-.6321-3.11742-1.7574-4.24264c-1.1252-1.12522-2.6513-1.75736-4.2426-1.75736s-3.11742.63214-4.24264 1.75736-1.75736 2.65134-1.75736 4.24264.63214 3.1174 1.75736 4.2426c1.12522 1.1253 2.65134 1.7574 4.24264 1.7574zm0-9.75c.19891 0 .38968.07902.53033.21967s.21967.33142.21967.53033v3.75c0 .19891-.07902.3897-.21967.5303-.14065.1407-.33142.2197-.53033.2197s-.38968-.079-.53033-.2197c-.14065-.1406-.21967-.33139-.21967-.5303v-3.75c0-.19891.07902-.38968.21967-.53033s.33142-.21967.53033-.21967zm0 7.5c-.19891 0-.38968-.079-.53033-.2197-.14065-.1406-.21967-.3314-.21967-.5303s.07902-.3897.21967-.5303c.14065-.1407.33142-.2197.53033-.2197s.38968.079.53033.2197c.14065.1406.21967.3314.21967.5303s-.07902.3897-.21967.5303c-.14065.1407-.33142.2197-.53033.2197z" fill="#fff"/></svg>