<svg fill="none" height="15" viewBox="0 0 21 15" width="21" xmlns="http://www.w3.org/2000/svg" xmlns:xlink="http://www.w3.org/1999/xlink"><clipPath id="a"><path d="m0 0h21v15h-21z"/></clipPath><g clip-path="url(#a)"><path d="m20.3818 1.59551c-1.2728-.47666-2.5466-.65801-3.8197-.65801-4.0415-.000293-8.08269 1.82637-12.12421 1.82637-1.01358 0-2.0265-.11485-3.04008-.40196-.11386-.03222-.22804-.04746-.33961-.04746-.5647 0-1.0582.39024-1.0582.93194v9.29471c0 .37.237234.7207.618188.8631 1.272792.477 2.546582.6583 3.819702.6583 4.04152 0 8.08301-1.8267 12.12451-1.8267 1.0136 0 2.0265.1149 3.0401.402.1139.0322.2281.0475.3396.0475.5647 0 1.0582-.3903 1.0582-.932v-9.29441c-.0003-.37032-.2375-.72071-.6185-.86338zm-9.8818 8.71699c-1.44998 0-2.625-1.25947-2.625-2.8125 0-1.55332 1.17534-2.8125 2.625-2.8125 1.4497 0 2.625 1.25918 2.625 2.8125 0 1.55361-1.1757 2.8125-2.625 2.8125z" fill="#fff"/></g></svg>