<svg width="50" height="34" viewBox="0 0 50 34" fill="none" xmlns="http://www.w3.org/2000/svg">
<g clip-path="url(#clip0_496_1499)">
<path d="M46.6667 33.6675H3.33333C2.44928 33.6675 1.60143 33.3163 0.976311 32.6912C0.35119 32.066 0 31.2182 0 30.3341L0 16.3119H2.40139L2.94306 15.0008H4.15556L4.69583 16.3064H9.42083V15.3133L9.84306 16.3133H12.2958L12.7181 15.2966V16.3105H24.4583V14.1661H24.6806C24.8389 14.1716 24.8847 14.1855 24.8847 14.4494V16.3133H30.9583V15.8147C31.5792 16.13 32.3111 16.3147 33.0875 16.3147L33.2194 16.3133H33.2125H35.7681L36.3153 15.0077H37.5278L38.0625 16.3133H42.9875V15.0716L43.7319 16.3133H47.6708V8.1133H43.7722V9.08136L43.2264 8.1133H39.2181V9.08136L38.7167 8.1133H33.3042C32.4841 8.07186 31.6671 8.24063 30.9306 8.60358L30.9597 8.59108V8.1133H27.2264V8.59108C26.7745 8.23491 26.2038 8.06453 25.6306 8.11469H25.6389H11.9958L11.0806 10.2327L10.1403 8.11469H5.84306V9.08275L5.36944 8.11469H1.70278L0.00416667 12.0036V3.67025C0.00416667 2.78619 0.355356 1.93835 0.980477 1.31322C1.6056 0.688104 2.45345 0.336914 3.3375 0.336914H46.6708C47.5549 0.336914 48.4027 0.688104 49.0279 1.31322C49.653 1.93835 50.0042 2.78619 50.0042 3.67025V18.2258H47.4028C47.3611 18.223 47.3111 18.223 47.2625 18.223C46.6597 18.223 46.1 18.4036 45.6333 18.7133L45.6444 18.7064V18.2258H41.7972C41.1962 18.1926 40.6015 18.3634 40.1097 18.7105L40.1181 18.705V18.2244H33.2486V18.705C32.6863 18.3878 32.0512 18.2222 31.4056 18.2244H31.3514H31.3542H26.8222V18.705C26.2301 18.3257 25.5275 18.1569 24.8278 18.2258L24.8403 18.2244H19.7694L18.6083 19.48L17.5222 18.2244H9.94722V26.43H17.3806L18.5764 25.155L19.7028 26.43H24.2847V24.5091H24.9236C25.5379 24.5332 26.1506 24.4306 26.7236 24.2077L26.6931 24.2189V26.4327H30.4708V24.2952H30.6528C30.8833 24.2952 30.9069 24.3036 30.9069 24.5369V26.4341H42.3875L42.5278 26.4369C43.1861 26.4369 43.8 26.2397 44.3111 25.9022L44.2986 25.9091V26.4341H47.9403L48.1139 26.4369C48.7958 26.4369 49.4444 26.2966 50.0333 26.0425L50.0014 26.055V30.3355C50.0014 31.2196 49.6502 32.0674 49.0251 32.6925C48.4 33.3177 47.5521 33.6689 46.6681 33.6689L46.6667 33.6675ZM29.3125 25.28H27.8986V19.398H31.1431C31.729 19.3437 32.3191 19.4423 32.8556 19.6841L32.8333 19.6758C33.2681 19.9147 33.5583 20.3702 33.5583 20.8925L33.5556 20.9855V20.9814L33.5569 21.0341C33.5569 21.7091 33.15 22.2897 32.5667 22.5425L32.5556 22.5466C32.8347 22.6466 33.0681 22.8175 33.2417 23.0383L33.2444 23.0411C33.4405 23.3657 33.5227 23.7465 33.4778 24.123L33.4792 24.1147V25.2786H32.0681V24.5425C32.1349 24.1417 32.0545 23.7303 31.8417 23.3841L31.8458 23.3911C31.6992 23.2798 31.5316 23.1994 31.353 23.1548C31.1744 23.1101 30.9887 23.1022 30.8069 23.1314L30.8153 23.13H29.3125V25.2786V25.28ZM29.3125 20.6133V21.9341H31.0208C31.2621 21.9564 31.5049 21.9132 31.7236 21.8091L31.7153 21.8133C31.8047 21.7556 31.8782 21.6764 31.9291 21.583C31.98 21.4896 32.0068 21.385 32.0069 21.2786L32.0056 21.2466C32.0124 21.1405 31.9891 21.0359 31.9382 20.9425C31.8873 20.8491 31.811 20.772 31.7181 20.7202L31.7153 20.7189C31.5045 20.6246 31.273 20.5863 31.0431 20.6077H31.0486L29.3125 20.6133ZM16.7778 25.2786H11.2125V19.398H16.8653L18.5944 21.3258L20.3819 19.398H24.8722C26.4667 19.398 27.2417 20.0327 27.2417 21.3355C27.2417 22.6619 26.4403 23.3064 24.7972 23.3064H23.0403V25.2772H20.3083L18.5778 23.3341L16.7778 25.2786ZM21.6403 20.0286L19.4819 22.348L21.6403 24.7425V20.0286ZM12.6139 22.8827V24.0522H16.0694L17.6667 22.3272L16.1306 20.6133H12.6125V21.6827H15.6986V22.8814L12.6139 22.8827ZM23.0403 20.6147V22.1119H24.8556C25.4111 22.1119 25.7306 21.8286 25.7306 21.3341C25.7306 20.8619 25.4333 20.6133 24.8708 20.6133L23.0403 20.6147ZM48.0931 25.2814H45.3792V24.0175H48.0819C48.2842 24.0454 48.4893 23.9925 48.6528 23.8702L48.6514 23.8716C48.7036 23.8232 48.7452 23.7646 48.7736 23.6993C48.8021 23.6341 48.8167 23.5636 48.8167 23.4925V23.4702C48.8168 23.3999 48.8015 23.3305 48.772 23.2667C48.7425 23.2029 48.6995 23.1463 48.6458 23.1008C48.5021 22.9969 48.3248 22.9504 48.1486 22.9702H48.1514L47.8917 22.9619C46.6222 22.9286 45.1847 22.8897 45.1847 21.1494C45.1847 20.3022 45.7153 19.398 47.2 19.398H50.0014V20.6508H47.4389C47.241 20.6286 47.041 20.6684 46.8667 20.7647L46.8722 20.7619C46.8037 20.807 46.7485 20.8698 46.7126 20.9436C46.6767 21.0174 46.6613 21.0996 46.6681 21.1814V21.18V21.1952C46.6681 21.2888 46.6976 21.38 46.7524 21.4558C46.8073 21.5317 46.8847 21.5882 46.9736 21.6175L46.9764 21.6189C47.1525 21.6732 47.3368 21.6957 47.5208 21.6855H47.5167L48.2792 21.705C48.8539 21.6476 49.4282 21.8187 49.8778 22.1814L49.8736 22.1786C49.9153 22.2119 49.9514 22.248 49.9833 22.2883L49.9847 22.2897L50.0014 24.5286C49.7678 24.8015 49.4707 25.0128 49.1362 25.1438C48.8017 25.2749 48.4401 25.3216 48.0833 25.28L48.0931 25.2814ZM42.6083 25.2814H39.8694V24.0175H42.5944C42.7983 24.0442 43.0047 23.9915 43.1708 23.8702L43.1681 23.8716C43.2199 23.8231 43.2612 23.7643 43.2894 23.6991C43.3176 23.6339 43.3321 23.5635 43.3319 23.4925V23.4786C43.3319 23.4071 43.3166 23.3364 43.2872 23.2713C43.2577 23.2062 43.2147 23.1481 43.1611 23.1008C43.0148 22.9968 42.8353 22.9504 42.6569 22.9702H42.6597L42.4014 22.9619C41.1361 22.9286 39.7 22.8897 39.7 21.1494C39.7 20.3022 40.2278 19.398 41.7097 19.398H44.5264V20.6508H41.9486C41.752 20.6289 41.5535 20.6687 41.3806 20.7647L41.3861 20.7619C41.3132 20.8121 41.2551 20.8811 41.2181 20.9616C41.1811 21.042 41.1666 21.131 41.1759 21.2191C41.1853 21.3071 41.2183 21.391 41.2715 21.4619C41.3246 21.5328 41.3959 21.5879 41.4778 21.6216L41.4806 21.623C41.659 21.6777 41.8457 21.7003 42.0319 21.6897H42.0278L42.7847 21.7091C43.3625 21.6535 43.9393 21.8248 44.3931 22.1869L44.3889 22.1827C44.5415 22.351 44.6576 22.5491 44.7298 22.7645C44.802 22.9799 44.8287 23.2079 44.8083 23.4341V23.4272C44.8125 24.6536 44.0694 25.2786 42.6042 25.2786L42.6083 25.2814ZM39.0278 25.2814H34.3333V19.3966H39.0236V20.6119H35.7361V21.6814H38.9472V22.88H35.7361V24.0494L39.0278 24.055V25.2772V25.2814ZM41.7639 15.1619H38.9014L38.3542 13.8508H35.4347L34.9042 15.1619H33.2597C32.5212 15.2009 31.794 14.9682 31.2153 14.5077L31.2222 14.5119C30.9473 14.2085 30.7386 13.851 30.6095 13.4625C30.4803 13.0739 30.4336 12.6626 30.4722 12.255L30.4708 12.2661C30.4351 11.8509 30.4841 11.4328 30.6149 11.0372C30.7458 10.6416 30.9557 10.2767 31.2319 9.96469L31.2292 9.96747C31.5208 9.71245 31.8618 9.52018 32.231 9.40262C32.6002 9.28506 32.9896 9.24473 33.375 9.28414L33.3639 9.28275H34.725V10.5369H33.3917C33.1966 10.5118 32.9983 10.53 32.8111 10.5903C32.6238 10.6505 32.4522 10.7513 32.3083 10.8855L32.3097 10.8841C32.0128 11.2644 31.8686 11.7419 31.9056 12.223V12.2161C31.8613 12.7103 32.0002 13.2036 32.2958 13.6022L32.2917 13.5966C32.5678 13.8223 32.9212 13.931 33.2764 13.8994H33.2708H33.9014L35.8889 9.27441H38L40.3792 14.83V9.27441H42.5194L44.9889 13.3689V9.27441H46.4333V15.1522H44.4278L41.7611 10.7383V15.1522L41.7639 15.1619ZM36.9042 10.2758L35.9361 12.6202H37.8764L36.9042 10.2758ZM23.2944 15.1591H21.8889V9.27858H25.1222C25.7124 9.21734 26.3082 9.31767 26.8458 9.56886L26.825 9.56053C27.0412 9.68006 27.2214 9.8553 27.3469 10.068C27.4725 10.2808 27.5387 10.5232 27.5389 10.7702L27.5361 10.8675V10.8633V10.9064C27.5362 11.2271 27.4438 11.5411 27.2698 11.8106C27.0959 12.0802 26.8479 12.2938 26.5556 12.4258L26.5444 12.43C26.8236 12.5355 27.0583 12.705 27.2375 12.9216L27.2403 12.9244C27.4384 13.2502 27.5202 13.6336 27.4722 14.0119L27.4736 14.0036V15.1577H26.0556L26.05 14.4161V14.305C26.1005 13.9423 26.0202 13.5736 25.8236 13.2647L25.8278 13.2716C25.6807 13.1636 25.5136 13.0857 25.3363 13.0426C25.1589 12.9994 24.9748 12.9918 24.7944 13.0202L24.8028 13.0189H23.2958V15.1577L23.2944 15.1591ZM23.2944 10.5022V11.8077H25C25.2409 11.8339 25.4843 11.7905 25.7014 11.6827L25.6944 11.6855C25.7834 11.6314 25.857 11.5554 25.9081 11.4647C25.9591 11.3739 25.986 11.2716 25.9861 11.1675L25.9847 11.1286C25.9918 11.023 25.9678 10.9191 25.9157 10.8271C25.8637 10.735 25.7858 10.6602 25.6917 10.6119L25.6889 10.6105C25.4775 10.5198 25.2474 10.4817 25.0181 10.4994H25.0222L23.2944 10.5022ZM8.41111 15.1591H5.55556L5.01528 13.848H2.0875L1.54306 15.1591H0.0152778L2.53333 9.27858H4.62083L7.01111 14.8439V9.27858H9.30417L11.1431 13.2661L12.8333 9.27858H15.1736V15.1564H13.7292L13.7264 10.5564L11.6889 15.1577H10.4556L8.4125 10.5494V15.1577L8.41111 15.1591ZM3.54444 10.2758L2.5875 12.6202H4.50694L3.54444 10.2758ZM29.7778 15.1577H28.3444V9.27858H29.7792V15.1564L29.7778 15.1577ZM20.9083 15.1577H16.2222V9.27858H20.9167V10.5008H17.6278V11.5605H20.8375V12.7675H17.625V13.9425H20.9139V15.1564L20.9083 15.1577Z" fill="#016FD0"/>
</g>
<defs>
<clipPath id="clip0_496_1499">
<rect width="50" height="33.3333" fill="white" transform="translate(0 0.333496)"/>
</clipPath>
</defs>
</svg>
