<svg width="20" height="21" viewBox="0 0 20 21" fill="none" xmlns="http://www.w3.org/2000/svg">
<g clip-path="url(#clip0_146_1696)">
<path d="M11.5252 16.3334C11.4007 16.3338 11.2777 16.3063 11.1652 16.2529C11.0527 16.1996 10.9536 16.1217 10.8752 16.025L6.85022 11.025C6.72765 10.8759 6.66064 10.6889 6.66064 10.4959C6.66064 10.3028 6.72765 10.1158 6.85022 9.96669L11.0169 4.96669C11.1583 4.79651 11.3616 4.68949 11.5819 4.66918C11.8023 4.64886 12.0217 4.71691 12.1919 4.85836C12.3621 4.99981 12.4691 5.20307 12.4894 5.42342C12.5097 5.64378 12.4417 5.86318 12.3002 6.03336L8.57522 10.5L12.1752 14.9667C12.2771 15.089 12.3418 15.238 12.3617 15.3959C12.3816 15.5539 12.3559 15.7142 12.2875 15.858C12.2191 16.0018 12.111 16.123 11.9759 16.2072C11.8408 16.2914 11.6844 16.3352 11.5252 16.3334Z" fill="#141515"/>
</g>
<defs>
<clipPath id="clip0_146_1696">
<rect width="20" height="20" fill="white" transform="translate(0 0.5)"/>
</clipPath>
</defs>
</svg>
