<svg width="165" height="125" viewBox="0 0 165 125" fill="none" xmlns="http://www.w3.org/2000/svg">
<path fill-rule="evenodd" clip-rule="evenodd" d="M88.1461 6.86067C100.456 2.85693 113.864 -2.89368 125.969 1.69469C138.185 6.32553 144.65 19.492 151.232 30.7747C157.836 42.0948 167.962 54.6411 164.177 67.1878C160.19 80.4061 138.087 80.1661 132.523 92.8018C125.812 108.039 146.559 135.253 131.283 141.882C114.968 148.962 103.846 120.413 88.1461 112.06C81.1221 108.323 73.1564 107.946 65.2871 106.77C52.1736 104.812 37.723 109.71 26.3864 102.835C13.5266 95.0374 0.425068 82.2185 0.00987394 67.1878C-0.403434 52.2254 12.2305 39.1252 24.3851 30.3851C35.0476 22.718 49.9633 26.9532 62.2851 22.4071C71.8853 18.8651 78.415 10.0256 88.1461 6.86067Z" fill="#283843"/>
</svg>
