<svg width="138" height="108" viewBox="0 0 138 108" fill="none" xmlns="http://www.w3.org/2000/svg">
<path fill-rule="evenodd" clip-rule="evenodd" d="M48.7429 -19.7861C62.0913 -19.6783 75.2178 -18.4629 87.1013 -12.3833C100.685 -5.43377 112.745 4.00862 120.7 17.0276C130.4 32.9031 141.679 51.0609 136.843 69.0251C131.972 87.1182 114.456 100.48 96.6567 106.341C80.8744 111.538 65.3591 98.0189 48.7429 98.0355C32.0977 98.0521 16.175 112.715 0.759434 106.437C-15.3211 99.8885 -29.156 83.3186 -29.976 65.9774C-30.786 48.845 -10.8951 38.8515 -3.16 23.5426C2.82246 11.7024 -0.252402 -4.50421 9.93187 -13.0061C20.2658 -21.6329 35.2809 -19.8947 48.7429 -19.7861Z" fill="#283843"/>
</svg>
