<svg width="134" height="162" viewBox="0 0 134 162" fill="none" xmlns="http://www.w3.org/2000/svg">
<path fill-rule="evenodd" clip-rule="evenodd" d="M102.645 -77.61C122.976 -74.9892 138.379 -59.3543 157.866 -52.9845C183.676 -44.5479 218.158 -54.8871 235.683 -34.1237C252.509 -14.1891 250.685 19.6058 238.699 42.7836C226.777 65.8392 192.82 65.9699 174.449 84.2928C162.491 96.2207 163.793 116.539 152.322 128.937C138.588 143.783 122.79 163.533 102.645 161.906C82.0973 160.246 73.5861 134.036 57.3877 121.27C43.9438 110.676 23.8272 108.126 15.4496 93.1896C7.0829 78.2731 15.6272 59.7408 13.3643 42.7836C10.6665 22.5665 -3.63597 3.84173 0.872179 -16.0493C5.70662 -37.38 19.8569 -57.0535 38.555 -68.3637C57.3495 -79.7323 80.8664 -80.4172 102.645 -77.61Z" fill="#283843"/>
</svg>
