<svg width="41" height="41" viewBox="0 0 41 41" fill="none" xmlns="http://www.w3.org/2000/svg">
<g clip-path="url(#clip0_144_1116)">
<path fill-rule="evenodd" clip-rule="evenodd" d="M15.8414 25.3937L19.0915 22.4775H15.4927V18.463H17.1919L14.016 15.5839L10.9736 18.4185H12.5319V23.2418C12.5393 24.7333 12.7916 25.4085 14.0902 25.4234L15.8488 25.4011L15.8414 25.3937Z" fill="white"/>
<path fill-rule="evenodd" clip-rule="evenodd" d="M25.6586 15.6063L22.4084 18.5225H26.0073V22.5369H24.3081L27.484 25.416L30.5264 22.5814H28.9681V17.7582C28.9607 16.2667 28.7084 15.5914 27.4098 15.5766L25.6512 15.5989L25.6586 15.6063Z" fill="white"/>
<path fill-rule="evenodd" clip-rule="evenodd" d="M25.6437 25.4086L22.7275 22.1585V25.7573H18.7131V24.0581L15.834 27.234L18.6686 30.2764V28.7181H23.4918C24.9833 28.7107 25.6586 28.4584 25.6734 27.1598L25.6512 25.4012L25.6437 25.4086Z" fill="white"/>
<path fill-rule="evenodd" clip-rule="evenodd" d="M15.8562 15.5914L18.7724 18.8415V15.2426H22.7869V16.9419L25.666 13.766L22.8314 10.7236V12.2819H18.0081C16.5166 12.2893 15.8414 12.5416 15.8265 13.8402L15.8488 15.5988L15.8562 15.5914Z" fill="white"/>
<path fill-rule="evenodd" clip-rule="evenodd" d="M2.88543 11.5472C2.46989 12.2002 2.12855 12.2076 1.81689 14.9977C1.50524 17.7878 3.27871 20.7263 3.27871 20.7263C3.27871 20.7263 3.0932 19.3757 3.94655 18.2701C4.79247 17.157 6.48432 15.5097 7.2783 14.3967C8.07229 13.2836 8.28006 11.8663 8.28006 11.8663C7.54544 12.2002 6.73661 12.3783 5.88327 12.3783C4.78505 12.3783 3.76104 12.0741 2.89285 11.5472H2.88543Z" fill="white"/>
<path fill-rule="evenodd" clip-rule="evenodd" d="M9.97931 6.64236C9.97931 8.913 8.13905 10.7533 5.86841 10.7533C3.59777 10.7533 1.75751 8.913 1.75751 6.64236C1.75751 4.37172 3.59777 2.53146 5.86841 2.53146C8.13905 2.53146 9.97931 4.37172 9.97931 6.64236Z" fill="white"/>
<path fill-rule="evenodd" clip-rule="evenodd" d="M10.5507 3.17709C10.5507 3.17709 13.7118 0.899028 16.8803 0.453805C20.0562 0.00858092 24.6049 0.772882 24.6049 0.772882C24.6049 0.772882 22.4085 0.92871 21.0431 1.73011C19.6778 2.53151 18.587 3.75588 16.9693 5.2177C15.3517 6.67951 14.2089 7.62933 13.0662 8.17101C12.3316 8.51977 11.6934 8.6014 11.3447 8.61624C11.5673 8.00035 11.686 7.33993 11.686 6.64241C11.686 5.34384 11.2631 4.14916 10.5433 3.17709H10.5507Z" fill="white"/>
<path fill-rule="evenodd" clip-rule="evenodd" d="M11.9828 38.5575C12.6358 38.9731 12.6433 39.3144 15.4333 39.6261C18.2234 39.9377 21.1619 38.1643 21.1619 38.1643C21.1619 38.1643 19.8114 38.3498 18.7057 37.4964C17.5927 36.6505 15.9453 34.9587 14.8323 34.1647C13.7192 33.3707 12.3019 33.1629 12.3019 33.1629C12.6358 33.8975 12.8139 34.7064 12.8139 35.5597C12.8139 36.6579 12.5097 37.6819 11.9828 38.5501V38.5575Z" fill="white"/>
<path fill-rule="evenodd" clip-rule="evenodd" d="M7.07049 31.4637C9.34113 31.4637 11.1814 33.304 11.1814 35.5746C11.1814 37.8452 9.34113 39.6855 7.07049 39.6855C4.79985 39.6855 2.95959 37.8452 2.95959 35.5746C2.95959 33.304 4.79985 31.4637 7.07049 31.4637Z" fill="white"/>
<path fill-rule="evenodd" clip-rule="evenodd" d="M3.6126 30.8997C3.6126 30.8997 1.33454 27.7386 0.889313 24.5701C0.44409 21.3941 1.20839 16.8454 1.20839 16.8454C1.20839 16.8454 1.36422 19.0419 2.16562 20.4072C2.96702 21.7726 4.19139 22.8634 5.65321 24.481C7.11502 26.0987 8.06484 27.2414 8.60652 28.3841C8.95528 29.1188 9.03691 29.7569 9.05175 30.1057C8.43586 29.8831 7.77544 29.7643 7.07792 29.7643C5.77935 29.7643 4.58467 30.1873 3.6126 30.9071V30.8997Z" fill="white"/>
<path fill-rule="evenodd" clip-rule="evenodd" d="M38.6146 29.4527C39.0301 28.7997 39.3715 28.7923 39.6831 26.0022C39.9948 23.2122 38.2213 20.2737 38.2213 20.2737C38.2213 20.2737 38.4068 21.6242 37.5535 22.7298C36.7076 23.8429 35.0157 25.4902 34.2217 26.6033C33.4277 27.7163 33.22 29.1336 33.22 29.1336C33.9546 28.7997 34.7634 28.6216 35.6168 28.6216C36.715 28.6216 37.739 28.9259 38.6072 29.4527H38.6146Z" fill="white"/>
<path fill-rule="evenodd" clip-rule="evenodd" d="M31.5207 34.365C31.5207 32.0944 33.3609 30.2542 35.6316 30.2542C37.9022 30.2542 39.7425 32.0944 39.7425 34.365C39.7425 36.6357 37.9022 38.4759 35.6316 38.4759C33.3609 38.4759 31.5207 36.6357 31.5207 34.365Z" fill="white"/>
<path fill-rule="evenodd" clip-rule="evenodd" d="M30.9568 37.8229C30.9568 37.8229 27.7957 40.101 24.6272 40.5462C21.4512 40.9914 16.9025 40.2271 16.9025 40.2271C16.9025 40.2271 19.099 40.0713 20.4643 39.2699C21.8297 38.4685 22.9205 37.2441 24.5381 35.7823C26.1558 34.3205 27.2985 33.3707 28.4412 32.829C29.1759 32.4802 29.814 32.3986 30.1628 32.3838C29.9402 32.9997 29.8214 33.6601 29.8214 34.3576C29.8214 35.6562 30.2444 36.8508 30.9642 37.8229H30.9568Z" fill="white"/>
<path fill-rule="evenodd" clip-rule="evenodd" d="M29.5246 2.44254C28.8716 2.027 28.8642 1.68566 26.0741 1.37401C23.2841 1.06235 20.3456 2.83582 20.3456 2.83582C20.3456 2.83582 21.6961 2.65031 22.8017 3.50366C23.9148 4.34959 25.5621 6.04144 26.6752 6.83542C27.7882 7.6294 29.2055 7.83717 29.2055 7.83717C28.8716 7.10255 28.6935 6.29373 28.6935 5.44038C28.6935 4.34216 28.9978 3.31815 29.5246 2.44996V2.44254Z" fill="white"/>
<path fill-rule="evenodd" clip-rule="evenodd" d="M34.4295 9.53639C32.1589 9.53639 30.3186 7.69613 30.3186 5.42549C30.3186 3.15485 32.1589 1.31459 34.4295 1.31459C36.7001 1.31459 38.5404 3.15485 38.5404 5.42549C38.5404 7.69613 36.7001 9.53639 34.4295 9.53639Z" fill="white"/>
<path fill-rule="evenodd" clip-rule="evenodd" d="M37.8874 10.1003C37.8874 10.1003 40.1655 13.2614 40.6107 16.4299C41.0559 19.6058 40.2916 24.1545 40.2916 24.1545C40.2916 24.1545 40.1358 21.9581 39.3344 20.5927C38.533 19.2274 37.3086 18.1366 35.8468 16.5189C34.385 14.9013 33.4352 13.7585 32.8935 12.6158C32.5447 11.8812 32.4631 11.243 32.4482 10.8942C33.0641 11.1169 33.7246 11.2356 34.4221 11.2356C35.7206 11.2356 36.9153 10.8126 37.8874 10.0928V10.1003Z" fill="white"/>
</g>
<defs>
<clipPath id="clip0_144_1116">
<rect width="40" height="40.371" fill="white" transform="translate(0.75 0.314491)"/>
</clipPath>
</defs>
</svg>
