<svg width="50" height="40" viewBox="0 0 50 40" fill="none" xmlns="http://www.w3.org/2000/svg">
<g clip-path="url(#clip0_496_1492)">
<path d="M49.9963 31.408C49.9963 35.6861 46.5127 39.1698 42.2346 39.1698H0.00390625V8.42871C0.00390625 4.15064 3.48756 0.666992 7.76562 0.666992H49.9963V31.408Z" fill="white"/>
<path d="M36.2451 23.5239H39.4536C39.5454 23.5239 39.7592 23.4934 39.851 23.4934C40.4623 23.3712 40.9817 22.821 40.9817 22.0571C40.9817 21.3238 40.4623 20.7737 39.851 20.621C39.7592 20.5903 39.5761 20.5903 39.4538 20.5903H36.2453L36.2451 23.5239Z" fill="url(#paint0_linear_496_1492)"/>
<path d="M39.0871 3.26416C36.0313 3.26416 33.5255 5.73957 33.5255 8.82582V14.6013H41.379C41.5623 14.6013 41.7762 14.6013 41.9289 14.6318C43.7013 14.7236 45.0153 15.6402 45.0153 17.229C45.0153 18.482 44.1291 19.5515 42.479 19.7656V19.8265C44.2818 19.9487 45.657 20.9572 45.657 22.5155C45.657 24.1963 44.1291 25.2964 42.1122 25.2964H33.495V36.6029H41.6539C44.7097 36.6029 47.2156 34.1277 47.2156 31.0412V3.26416H39.0871Z" fill="url(#paint1_linear_496_1492)"/>
<path d="M40.5843 17.5962C40.5843 16.8627 40.0649 16.3737 39.4536 16.2819C39.3927 16.2819 39.2398 16.2515 39.1482 16.2515H36.2451V18.9405H39.1482C39.24 18.9405 39.4232 18.9405 39.4538 18.91C40.065 18.8183 40.5845 18.3295 40.5845 17.596" fill="url(#paint2_linear_496_1492)"/>
<path d="M8.34603 3.26416C5.29024 3.26416 2.78437 5.73957 2.78437 8.82582V22.5464C4.34292 23.3102 5.96241 23.7991 7.58208 23.7991C9.50718 23.7991 10.5461 22.638 10.5461 21.049V14.5707H15.3131V21.0183C15.3131 23.524 13.7548 25.5715 8.46828 25.5715C5.25978 25.5715 2.75391 24.8685 2.75391 24.8685V36.5722H10.9128C13.9686 36.5722 16.4745 34.097 16.4745 31.0105V3.26455L8.34603 3.26416Z" fill="url(#paint3_linear_496_1492)"/>
<path d="M23.7166 3.26416C20.6608 3.26416 18.1549 5.73957 18.1549 8.82582V16.0985C19.5607 14.9067 22.0053 14.1428 25.9473 14.3262C28.0558 14.4179 30.3169 14.9985 30.3169 14.9985V17.3515C29.1862 16.7709 27.8419 16.2513 26.1 16.129C23.1053 15.9152 21.3025 17.3819 21.3025 19.9487C21.3025 22.5462 23.1053 24.013 26.1 23.7685C27.8419 23.6462 29.1864 23.0963 30.3169 22.5462V24.8992C30.3169 24.8992 28.0862 25.4797 25.9473 25.5715C22.0053 25.7547 19.5607 24.9908 18.1551 23.7991V36.6333H26.314C29.3698 36.6333 31.8755 34.1581 31.8755 31.0717V3.26455L23.7166 3.26416Z" fill="url(#paint4_linear_496_1492)"/>
</g>
<defs>
<linearGradient id="paint0_linear_496_1492" x1="-236.237" y1="167.631" x2="1136.99" y2="167.631" gradientUnits="userSpaceOnUse">
<stop stop-color="#007940"/>
<stop offset="0.2285" stop-color="#00873F"/>
<stop offset="0.7433" stop-color="#40A737"/>
<stop offset="1" stop-color="#5CB531"/>
</linearGradient>
<linearGradient id="paint1_linear_496_1492" x1="36.0059" y1="1668.87" x2="1409.3" y2="1668.87" gradientUnits="userSpaceOnUse">
<stop stop-color="#007940"/>
<stop offset="0.2285" stop-color="#00873F"/>
<stop offset="0.7433" stop-color="#40A737"/>
<stop offset="1" stop-color="#5CB531"/>
</linearGradient>
<linearGradient id="paint2_linear_496_1492" x1="-236.277" y1="150.322" x2="1137.02" y2="150.322" gradientUnits="userSpaceOnUse">
<stop stop-color="#007940"/>
<stop offset="0.2285" stop-color="#00873F"/>
<stop offset="0.7433" stop-color="#40A737"/>
<stop offset="1" stop-color="#5CB531"/>
</linearGradient>
<linearGradient id="paint3_linear_496_1492" x1="5.16873" y1="1668.87" x2="1399.62" y2="1668.87" gradientUnits="userSpaceOnUse">
<stop stop-color="#1F286F"/>
<stop offset="0.4751" stop-color="#004E94"/>
<stop offset="0.8261" stop-color="#0066B1"/>
<stop offset="1" stop-color="#006FBC"/>
</linearGradient>
<linearGradient id="paint4_linear_496_1492" x1="10.2519" y1="1668.85" x2="1364.6" y2="1668.85" gradientUnits="userSpaceOnUse">
<stop stop-color="#6C2C2F"/>
<stop offset="0.1735" stop-color="#882730"/>
<stop offset="0.5731" stop-color="#BE1833"/>
<stop offset="0.8585" stop-color="#DC0436"/>
<stop offset="1" stop-color="#E60039"/>
</linearGradient>
<clipPath id="clip0_496_1492">
<rect width="50" height="38.666" fill="white" transform="translate(0 0.666992)"/>
</clipPath>
</defs>
</svg>
