<svg width="28" height="24" viewBox="0 0 28 24" fill="none" xmlns="http://www.w3.org/2000/svg">
<path d="M7.49438 4.99971H9.8V9.19971H4.86938L6.19937 5.87908C6.40937 5.34971 6.92125 4.99971 7.49438 4.99971ZM11.9 9.19971V4.99971H15.4525C15.8769 4.99971 16.2794 5.19221 16.5463 5.52471L19.4862 9.19971H11.9ZM23.1088 9.24346L18.7338 3.77471C17.9375 2.77721 16.73 2.19971 15.4525 2.19971H7.49438C5.775 2.19971 4.23062 3.24533 3.59625 4.83783L1.77625 9.39221C0.735 9.80346 0 10.8141 0 11.9997V16.8997C0 17.6741 0.625625 18.2997 1.4 18.2997H2.85688C3.18938 20.286 4.9175 21.7997 7 21.7997C9.0825 21.7997 10.8106 20.286 11.1431 18.2997H16.8569C17.1894 20.286 18.9175 21.7997 21 21.7997C23.0825 21.7997 24.8106 20.286 25.1431 18.2997H26.6C27.3744 18.2997 28 17.6741 28 16.8997V14.7997C28 11.9472 25.865 9.59346 23.1088 9.24346ZM19.0181 16.8997C19.1072 16.6362 19.2478 16.3929 19.4318 16.1842C19.6157 15.9754 19.8392 15.8053 20.0895 15.6837C20.3397 15.5621 20.6116 15.4914 20.8893 15.4757C21.1671 15.4601 21.4452 15.4998 21.7075 15.5925C21.9698 15.6853 22.2111 15.8292 22.4173 16.016C22.6235 16.2028 22.7905 16.4287 22.9087 16.6805C23.0268 16.9324 23.0937 17.2053 23.1056 17.4832C23.1174 17.7612 23.0739 18.0387 22.9775 18.2997C22.8884 18.5633 22.7478 18.8065 22.5639 19.0152C22.3799 19.224 22.1564 19.3941 21.9062 19.5157C21.6559 19.6373 21.384 19.708 21.1063 19.7237C20.8285 19.7393 20.5504 19.6996 20.2881 19.6069C20.0258 19.5141 19.7845 19.3702 19.5784 19.1834C19.3722 18.9966 19.2051 18.7707 19.087 18.5189C18.9688 18.267 18.9019 17.9942 18.8901 17.7162C18.8782 17.4382 18.9218 17.1607 19.0181 16.8997ZM7 15.4997C7.55695 15.4997 8.0911 15.721 8.48492 16.1148C8.87875 16.5086 9.1 17.0428 9.1 17.5997C9.1 18.1567 8.87875 18.6908 8.48492 19.0846C8.0911 19.4785 7.55695 19.6997 7 19.6997C6.44305 19.6997 5.9089 19.4785 5.51508 19.0846C5.12125 18.6908 4.9 18.1567 4.9 17.5997C4.9 17.0428 5.12125 16.5086 5.51508 16.1148C5.9089 15.721 6.44305 15.4997 7 15.4997Z" fill="white"/>
</svg>
