<svg width="28" height="24" viewBox="0 0 28 24" fill="none" xmlns="http://www.w3.org/2000/svg">
<g clip-path="url(#clip0_160_2420)">
<path d="M22.4393 9.19961C21.7875 9.19523 21.1662 9.30023 20.5843 9.50148L19.145 7.09961H22.75C23.3318 7.09961 23.8 6.63148 23.8 6.04961V4.64961C23.8 4.06773 23.3318 3.59961 22.75 3.59961H20.7681C20.4706 3.59961 20.1862 3.72648 19.9893 3.94523L18.3487 5.76961L17.3512 4.10711C17.1587 3.79211 16.8175 3.59961 16.45 3.59961H12.95C12.565 3.59961 12.25 3.91461 12.25 4.29961V4.99961C12.25 5.38461 12.565 5.69961 12.95 5.69961H15.855L16.695 7.09961H9.97058C9.1962 6.08898 8.0062 5.34961 5.59995 5.34961H3.17183C2.5812 5.34961 2.08683 5.83086 2.09995 6.42148C2.1087 6.99023 2.57683 7.44961 3.14995 7.44961H5.59995C6.67183 7.44961 7.29308 7.92648 7.6912 8.53461L7.19683 9.43148C6.62808 9.26086 6.01995 9.18211 5.38995 9.20398C2.44558 9.30898 0.0699518 11.7196 -4.81812e-05 14.6684C-0.0700482 17.8227 2.46308 20.3996 5.59995 20.3996C8.20745 20.3996 10.3993 18.6146 11.025 16.1996H14.7087C15.3081 16.1996 15.785 15.7009 15.7587 15.1015C15.6668 13.0409 16.5243 11.0021 18.2175 9.63273L18.7643 10.5427C17.5568 11.5796 16.7912 13.1196 16.8043 14.839C16.8262 17.884 19.3068 20.3734 22.3518 20.3996C25.4843 20.4302 28.0306 17.884 28.0043 14.7515C27.9737 11.7065 25.4843 9.22148 22.4393 9.19961ZM5.59995 18.2996C3.67058 18.2996 2.09995 16.729 2.09995 14.7996C2.09995 12.8702 3.67058 11.2996 5.59995 11.2996C5.7837 11.2996 5.96745 11.3127 6.14683 11.3434L4.3312 14.6421C3.9462 15.3421 4.4537 16.1996 5.24995 16.1996H8.80683C8.26433 17.4334 7.03058 18.2996 5.59995 18.2996ZM25.8956 14.9921C25.7993 16.7684 24.3643 18.2034 22.5925 18.2952C20.5756 18.4046 18.9 16.7946 18.9 14.7996C18.9 13.8634 19.2675 13.0146 19.8668 12.389L22.0281 15.994C22.225 16.3265 22.6581 16.4315 22.9906 16.2346L23.59 15.8759C23.9225 15.679 24.0275 15.2459 23.8306 14.9134L21.7043 11.374C21.9318 11.3259 22.1637 11.304 22.4 11.304C24.395 11.2996 26.0006 12.9752 25.8956 14.9921Z" fill="white"/>
</g>
<defs>
<clipPath id="clip0_160_2420">
<rect width="28" height="22.4" fill="white" transform="translate(0 0.799805)"/>
</clipPath>
</defs>
</svg>
