<svg width="28" height="30" viewBox="0 0 28 30" fill="none" xmlns="http://www.w3.org/2000/svg">
<g clip-path="url(#clip0_186_2763)">
<path fill-rule="evenodd" clip-rule="evenodd" d="M10.5642 18.4254L12.8393 16.3841H10.3201V13.574H11.5095L9.28639 11.5586L7.15674 13.5428H8.24754V16.9191C8.25273 17.9631 8.42934 18.4358 9.33833 18.4462L10.5694 18.4306L10.5642 18.4254Z" fill="white"/>
<path fill-rule="evenodd" clip-rule="evenodd" d="M17.4362 11.5745L15.1611 13.6158H17.6804V16.4259H16.4909L18.714 18.4413L20.8437 16.4571H19.7529V13.0808C19.7477 12.0368 19.5711 11.5641 18.6621 11.5537L17.431 11.5693L17.4362 11.5745Z" fill="white"/>
<path fill-rule="evenodd" clip-rule="evenodd" d="M17.4254 18.4362L15.3841 16.1611V18.6804H12.574V17.4909L10.5586 19.714L12.5428 21.8437V20.7529H15.9191C16.9631 20.7477 17.4358 20.5711 17.4462 19.6621L17.4306 18.431L17.4254 18.4362Z" fill="white"/>
<path fill-rule="evenodd" clip-rule="evenodd" d="M10.5745 11.5642L12.6158 13.8393V11.3201H15.4259V12.5095L17.4413 10.2864L15.4571 8.15674V9.24754H12.0808C11.0368 9.25273 10.5641 9.42934 10.5537 10.3383L10.5693 11.5694L10.5745 11.5642Z" fill="white"/>
<path fill-rule="evenodd" clip-rule="evenodd" d="M1.49489 8.73291C1.20401 9.19001 0.96507 9.1952 0.746911 11.1482C0.528751 13.1013 1.77018 15.1582 1.77018 15.1582C1.77018 15.1582 1.64033 14.2129 2.23767 13.4389C2.82982 12.6598 4.01411 11.5067 4.5699 10.7275C5.12569 9.94837 5.27113 8.95626 5.27113 8.95626C4.75689 9.19001 4.19072 9.31467 3.59337 9.31467C2.82462 9.31467 2.10781 9.1017 1.50008 8.73291H1.49489Z" fill="white"/>
<path fill-rule="evenodd" clip-rule="evenodd" d="M6.46034 5.2995C6.46034 6.88895 5.17216 8.17713 3.58271 8.17713C1.99326 8.17713 0.705078 6.88895 0.705078 5.2995C0.705078 3.71006 1.99326 2.42188 3.58271 2.42188C5.17216 2.42188 6.46034 3.71006 6.46034 5.2995Z" fill="white"/>
<path fill-rule="evenodd" clip-rule="evenodd" d="M6.86066 2.87394C6.86066 2.87394 9.07342 1.27929 11.2914 0.967636C13.5145 0.65598 16.6986 1.19099 16.6986 1.19099C16.6986 1.19099 15.1611 1.30007 14.2054 1.86105C13.2496 2.42203 12.4861 3.27909 11.3537 4.30236C10.2214 5.32563 9.42144 5.9905 8.62152 6.36968C8.10729 6.61381 7.66058 6.67095 7.41645 6.68134C7.57228 6.25022 7.65539 5.78792 7.65539 5.29966C7.65539 4.39066 7.35931 3.55439 6.85547 2.87394H6.86066Z" fill="white"/>
<path fill-rule="evenodd" clip-rule="evenodd" d="M7.86279 27.64C8.31989 27.9309 8.32508 28.1698 10.2781 28.388C12.2312 28.6061 14.2881 27.3647 14.2881 27.3647C14.2881 27.3647 13.3428 27.4946 12.5688 26.8972C11.7897 26.3051 10.6365 25.1208 9.85739 24.565C9.07825 24.0092 8.08615 23.8638 8.08615 23.8638C8.31989 24.378 8.44455 24.9442 8.44455 25.5415C8.44455 26.3103 8.23159 27.0271 7.86279 27.6348V27.64Z" fill="white"/>
<path fill-rule="evenodd" clip-rule="evenodd" d="M4.4245 22.6743C6.01395 22.6743 7.30213 23.9625 7.30213 25.5519C7.30213 27.1414 6.01395 28.4296 4.4245 28.4296C2.83506 28.4296 1.54688 27.1414 1.54688 25.5519C1.54688 23.9625 2.83506 22.6743 4.4245 22.6743Z" fill="white"/>
<path fill-rule="evenodd" clip-rule="evenodd" d="M2.00382 22.2799C2.00382 22.2799 0.409176 20.0671 0.0975193 17.8491C-0.214137 15.626 0.320873 12.4419 0.320873 12.4419C0.320873 12.4419 0.429953 13.9794 0.990935 14.9351C1.55192 15.8909 2.40897 16.6545 3.43224 17.7868C4.45552 18.9192 5.12038 19.7191 5.49957 20.519C5.7437 21.0332 5.80084 21.4799 5.81122 21.7241C5.3801 21.5682 4.91781 21.4851 4.42955 21.4851C3.52055 21.4851 2.68427 21.7812 2.00382 22.285V22.2799Z" fill="white"/>
<path fill-rule="evenodd" clip-rule="evenodd" d="M26.5052 21.2666C26.7961 20.8095 27.0351 20.8043 27.2532 18.8513C27.4714 16.8982 26.2299 14.8413 26.2299 14.8413C26.2299 14.8413 26.3598 15.7867 25.7625 16.5606C25.1703 17.3398 23.986 18.4929 23.4302 19.272C22.8744 20.0512 22.729 21.0433 22.729 21.0433C23.2432 20.8095 23.8094 20.6849 24.4068 20.6849C25.1755 20.6849 25.8923 20.8978 26.5 21.2666H26.5052Z" fill="white"/>
<path fill-rule="evenodd" clip-rule="evenodd" d="M21.5396 24.7053C21.5396 23.1158 22.8277 21.8276 24.4172 21.8276C26.0066 21.8276 27.2948 23.1158 27.2948 24.7053C27.2948 26.2947 26.0066 27.5829 24.4172 27.5829C22.8277 27.5829 21.5396 26.2947 21.5396 24.7053Z" fill="white"/>
<path fill-rule="evenodd" clip-rule="evenodd" d="M21.1446 27.1263C21.1446 27.1263 18.9318 28.7209 16.7139 29.0326C14.4907 29.3442 11.3066 28.8092 11.3066 28.8092C11.3066 28.8092 12.8441 28.7001 13.7999 28.1391C14.7556 27.5782 15.5192 26.7211 16.6516 25.6978C17.7839 24.6746 18.5838 24.0097 19.3837 23.6305C19.898 23.3864 20.3447 23.3292 20.5888 23.3188C20.433 23.75 20.3499 24.2123 20.3499 24.7005C20.3499 25.6095 20.6459 26.4458 21.1498 27.1263H21.1446Z" fill="white"/>
<path fill-rule="evenodd" clip-rule="evenodd" d="M20.1421 2.35963C19.685 2.06875 19.6798 1.82982 17.7268 1.61166C15.7737 1.3935 13.7168 2.63493 13.7168 2.63493C13.7168 2.63493 14.6622 2.50507 15.4361 3.10241C16.2152 3.69456 17.3684 4.87886 18.1475 5.43464C18.9267 5.99043 19.9188 6.13587 19.9188 6.13587C19.685 5.62164 19.5604 5.05546 19.5604 4.45812C19.5604 3.68937 19.7733 2.97256 20.1421 2.36483V2.35963Z" fill="white"/>
<path fill-rule="evenodd" clip-rule="evenodd" d="M23.5759 7.32557C21.9864 7.32557 20.6982 6.03739 20.6982 4.44794C20.6982 2.85849 21.9864 1.57031 23.5759 1.57031C25.1653 1.57031 26.4535 2.85849 26.4535 4.44794C26.4535 6.03739 25.1653 7.32557 23.5759 7.32557Z" fill="white"/>
<path fill-rule="evenodd" clip-rule="evenodd" d="M25.9964 7.72004C25.9964 7.72004 27.591 9.9328 27.9027 12.1508C28.2143 14.3739 27.6793 17.558 27.6793 17.558C27.6793 17.558 27.5702 16.0205 27.0093 15.0647C26.4483 14.109 25.5912 13.3454 24.5679 12.2131C23.5447 11.0807 22.8798 10.2808 22.5006 9.4809C22.2565 8.96666 22.1994 8.51996 22.189 8.27583C22.6201 8.43165 23.0824 8.51476 23.5706 8.51476C24.4796 8.51476 25.3159 8.21869 25.9964 7.71484V7.72004Z" fill="white"/>
</g>
<defs>
<clipPath id="clip0_186_2763">
<rect width="28" height="28.2597" fill="white" transform="translate(0 0.870117)"/>
</clipPath>
</defs>
</svg>
