<svg width="28" height="28" viewBox="0 0 28 28" fill="none" xmlns="http://www.w3.org/2000/svg">
<path d="M13.125 0.984375C12.9062 0.984375 12.6875 1.20312 12.25 1.64062V3.39062H9.59618C8.75 2.51562 8.75 2.51562 7.875 3.39062C7 4.26562 7 4.26562 7.875 5.14062C8.75 6.01562 8.75 6.01562 9.55773 5.14062H12.25V6.89062H14V5.14062H16.6634C17.5277 6.01562 17.5275 6.01562 18.4025 5.14062C19.2775 4.26562 19.2775 4.26562 18.4025 3.39062C17.5275 2.51562 17.5277 2.51562 16.625 3.39062H14V1.64062C13.5625 1.20312 13.3438 0.984375 13.125 0.984375ZM1.75 5.25V19.25H3.5V5.25H1.75ZM5.25 7.875L4.375 7V17.5L5.25 16.625V7.875ZM13.125 7.76562C11.375 7.76562 10.4809 7.76562 10.4327 9.51562H6.125V14.7656H9.65918C10.5 15.6406 11.375 16.5156 13.125 16.5156C14.875 16.5156 15.75 15.6406 16.625 14.7656C20.125 14.7656 20.125 14.7656 20.125 16.5156V18.2656H25.375V14.7656C25.375 11.2656 23.625 9.51562 20.125 9.51562H15.75C15.7691 7.76562 14.875 7.76562 13.125 7.76562ZM19.25 19.1406V20.0156H26.25V19.1406H19.25ZM22.75 20.8906C22.75 20.8906 20.6269 23.7158 21 25.375C21.2308 26.4009 21.6984 27.0156 22.75 27.0156C23.8016 27.0156 24.2692 26.4009 24.5 25.375C24.8731 23.7158 22.75 20.8906 22.75 20.8906Z" fill="white"/>
</svg>
