<svg width="926" height="310" viewBox="0 0 926 310" fill="none" xmlns="http://www.w3.org/2000/svg">
<rect y="29.5619" width="200" height="200" rx="10" transform="rotate(-8.5 0 29.5619)" fill="#575890"/>
<rect x="23" y="111.562" width="200" height="200" rx="10" transform="rotate(-8.5 23 111.562)" fill="#575890"/>
<rect y="29.9999" width="250" height="250" rx="10" fill="#1C1D56"/>
<circle cx="125" cy="152.463" r="75" fill="white"/>
<path d="M434.845 133.883C432.819 130.149 429.885 127.323 426.045 125.403C422.312 123.376 417.885 122.363 412.765 122.363C403.912 122.363 396.819 125.296 391.485 131.163C386.152 136.923 383.485 144.656 383.485 154.363C383.485 164.709 386.259 172.816 391.805 178.683C397.459 184.443 405.192 187.323 415.005 187.323C421.725 187.323 427.379 185.616 431.965 182.203C436.659 178.789 440.072 173.883 442.205 167.483H407.485V147.323H467.005V172.763C464.979 179.589 461.512 185.936 456.605 191.803C451.805 197.669 445.672 202.416 438.205 206.043C430.739 209.669 422.312 211.483 412.925 211.483C401.832 211.483 391.912 209.083 383.165 204.283C374.525 199.376 367.752 192.603 362.845 183.963C358.045 175.323 355.645 165.456 355.645 154.363C355.645 143.269 358.045 133.403 362.845 124.763C367.752 116.016 374.525 109.243 383.165 104.443C391.805 99.5359 401.672 97.0825 412.765 97.0825C426.205 97.0825 437.512 100.336 446.685 106.843C455.965 113.349 462.099 122.363 465.085 133.883H434.845ZM522.8 211.963C514.054 211.963 506.16 210.096 499.12 206.363C492.187 202.629 486.694 197.296 482.64 190.363C478.694 183.429 476.72 175.323 476.72 166.043C476.72 156.869 478.747 148.816 482.8 141.883C486.854 134.843 492.4 129.456 499.44 125.723C506.48 121.989 514.374 120.123 523.12 120.123C531.867 120.123 539.76 121.989 546.8 125.723C553.84 129.456 559.387 134.843 563.44 141.883C567.494 148.816 569.52 156.869 569.52 166.043C569.52 175.216 567.44 183.323 563.28 190.363C559.227 197.296 553.627 202.629 546.48 206.363C539.44 210.096 531.547 211.963 522.8 211.963ZM522.8 188.283C528.027 188.283 532.454 186.363 536.08 182.523C539.814 178.683 541.68 173.189 541.68 166.043C541.68 158.896 539.867 153.403 536.24 149.563C532.72 145.723 528.347 143.803 523.12 143.803C517.787 143.803 513.36 145.723 509.84 149.563C506.32 153.296 504.56 158.789 504.56 166.043C504.56 173.189 506.267 178.683 509.68 182.523C513.2 186.363 517.574 188.283 522.8 188.283ZM624.195 185.083L643.555 121.403H672.675L640.995 210.683H607.235L575.555 121.403H604.835L624.195 185.083ZM711.551 134.043C714.111 129.883 717.791 126.523 722.591 123.963C727.391 121.403 732.885 120.123 739.071 120.123C746.431 120.123 753.098 121.989 759.071 125.723C765.045 129.456 769.738 134.789 773.151 141.723C776.671 148.656 778.431 156.709 778.431 165.883C778.431 175.056 776.671 183.163 773.151 190.203C769.738 197.136 765.045 202.523 759.071 206.363C753.098 210.096 746.431 211.963 739.071 211.963C732.778 211.963 727.285 210.736 722.591 208.283C717.898 205.723 714.218 202.363 711.551 198.203V210.683H684.191V92.2825H711.551V134.043ZM750.591 165.883C750.591 159.056 748.671 153.723 744.831 149.883C741.098 145.936 736.458 143.963 730.911 143.963C725.471 143.963 720.831 145.936 716.991 149.883C713.258 153.829 711.391 159.216 711.391 166.043C711.391 172.869 713.258 178.256 716.991 182.203C720.831 186.149 725.471 188.123 730.911 188.123C736.351 188.123 740.991 186.149 744.831 182.203C748.671 178.149 750.591 172.709 750.591 165.883ZM806.545 112.123C801.745 112.123 797.799 110.736 794.705 107.963C791.719 105.083 790.225 101.563 790.225 97.4025C790.225 93.1359 791.719 89.6159 794.705 86.8425C797.799 83.9625 801.745 82.5225 806.545 82.5225C811.239 82.5225 815.079 83.9625 818.065 86.8425C821.159 89.6159 822.705 93.1359 822.705 97.4025C822.705 101.563 821.159 105.083 818.065 107.963C815.079 110.736 811.239 112.123 806.545 112.123ZM820.145 121.403V210.683H792.785V121.403H820.145ZM867.333 92.2825V210.683H839.973V92.2825H867.333ZM914.52 92.2825V210.683H887.16V92.2825H914.52Z" fill="#1C1D56"/>
</svg>
