<svg width="50" height="40" viewBox="0 0 50 40" fill="none" xmlns="http://www.w3.org/2000/svg">
<g clip-path="url(#clip0_417_1520)">
<path d="M9.09537 39.1949V36.6286C9.09537 35.6446 8.49519 35.0031 7.46644 35.0031C6.95217 35.0031 6.39494 35.1742 6.00913 35.7303C5.70924 35.2597 5.28067 35.0031 4.63773 35.0031C4.20897 35.0031 3.7806 35.1313 3.43756 35.6019V35.0886H2.53748V39.1949H3.43756V36.9278C3.43756 36.2009 3.82336 35.8585 4.42355 35.8585C5.02334 35.8585 5.32363 36.2435 5.32363 36.9278V39.1949H6.22371V36.9278C6.22371 36.2009 6.65208 35.8585 7.20931 35.8585C7.80949 35.8585 8.10939 36.2435 8.10939 36.9278V39.1949H9.09537ZM22.425 35.0886H20.9678V33.8482H20.0678V35.0886H19.2534V35.9012H20.0676V37.7834C20.0676 38.7246 20.4534 39.2805 21.4821 39.2805C21.8679 39.2805 22.2963 39.1523 22.5966 38.9812L22.3393 38.2111C22.0821 38.3822 21.7822 38.4251 21.5678 38.4251C21.1393 38.4251 20.9678 38.1685 20.9678 37.7406V35.9012H22.425V35.0886ZM30.0544 35.0029C29.5401 35.0029 29.1972 35.2597 28.9829 35.6019V35.0886H28.0828V39.1949H28.9829V36.8852C28.9829 36.2009 29.2828 35.8158 29.84 35.8158C30.0114 35.8158 30.2258 35.8587 30.3972 35.9014L30.6544 35.046C30.4829 35.0031 30.2258 35.0031 30.0544 35.0031M18.5247 35.431C18.096 35.1315 17.496 35.0033 16.8531 35.0033C15.8245 35.0033 15.1388 35.5165 15.1388 36.3293C15.1388 37.0138 15.6531 37.3986 16.5532 37.527L16.9817 37.5699C17.4532 37.6552 17.7104 37.7836 17.7104 37.9976C17.7104 38.2969 17.3675 38.5108 16.7673 38.5108C16.1674 38.5108 15.6958 38.2969 15.3957 38.0831L14.9672 38.7674C15.4387 39.1096 16.0816 39.2807 16.7244 39.2807C17.9246 39.2807 18.6105 38.7248 18.6105 37.9547C18.6105 37.2275 18.0532 36.8425 17.1959 36.7143L16.7673 36.6714C16.3815 36.6286 16.0816 36.5432 16.0816 36.2866C16.0816 35.9871 16.3815 35.816 16.8531 35.816C17.3675 35.816 17.8818 36.0298 18.1389 36.1582L18.5247 35.431ZM42.4413 35.0033C41.9268 35.0033 41.584 35.2599 41.3696 35.6021V35.0888H40.4695V39.1951H41.3696V36.8854C41.3696 36.201 41.6697 35.816 42.2267 35.816C42.3984 35.816 42.6127 35.8589 42.7842 35.9016L43.0413 35.0462C42.8699 35.0033 42.6127 35.0033 42.4413 35.0033ZM30.9545 37.142C30.9545 38.3824 31.8116 39.2807 33.1404 39.2807C33.7404 39.2807 34.169 39.1525 34.5975 38.8103L34.169 38.0831C33.8261 38.3397 33.4833 38.468 33.0975 38.468C32.3688 38.468 31.8545 37.9547 31.8545 37.142C31.8545 36.3721 32.3688 35.8587 33.0975 35.816C33.4833 35.816 33.8261 35.9442 34.169 36.201L34.5975 35.4739C34.169 35.1315 33.7404 35.0033 33.1404 35.0033C31.8116 35.0033 30.9545 35.9016 30.9545 37.142ZM39.2696 37.142V35.0888H38.3695V35.6021C38.0694 35.2172 37.6408 35.0033 37.0836 35.0033C35.9264 35.0033 35.0263 35.9016 35.0263 37.142C35.0263 38.3824 35.9264 39.2807 37.0836 39.2807C37.6836 39.2807 38.1123 39.0669 38.3695 38.6819V39.1951H39.2696V37.142ZM35.9691 37.142C35.9691 36.4148 36.4406 35.816 37.2121 35.816C37.9407 35.816 38.4552 36.3721 38.4552 37.142C38.4552 37.8692 37.9407 38.468 37.2121 38.468C36.4406 38.4251 35.9691 37.8692 35.9691 37.142ZM25.2111 35.0033C24.0109 35.0033 23.1536 35.8587 23.1536 37.142C23.1536 38.4253 24.0107 39.2807 25.2539 39.2807C25.8539 39.2807 26.454 39.1096 26.9256 38.7248L26.4968 38.0831C26.154 38.3397 25.7254 38.5108 25.2968 38.5108C24.7396 38.5108 24.1824 38.2542 24.0537 37.5268H27.097V37.1849C27.1399 35.8587 26.3685 35.0033 25.2111 35.0033ZM25.2109 35.7732C25.768 35.7732 26.154 36.1155 26.2395 36.7572H24.0965C24.1822 36.201 24.568 35.7732 25.2109 35.7732ZM47.5415 37.142V33.4634H46.6414V35.6021C46.3413 35.2172 45.9128 35.0033 45.3556 35.0033C44.1983 35.0033 43.2982 35.9016 43.2982 37.142C43.2982 38.3824 44.1983 39.2807 45.3556 39.2807C45.9557 39.2807 46.3843 39.0669 46.6414 38.6819V39.1951H47.5415V37.142ZM44.2413 37.142C44.2413 36.4148 44.7126 35.816 45.4842 35.816C46.2129 35.816 46.7272 36.3721 46.7272 37.142C46.7272 37.8692 46.2129 38.468 45.4842 38.468C44.7126 38.4251 44.2413 37.8692 44.2413 37.142ZM14.1526 37.142V35.0888H13.2525V35.6021C12.9524 35.2172 12.5239 35.0033 11.9667 35.0033C10.8094 35.0033 9.90935 35.9016 9.90935 37.142C9.90935 38.3824 10.8094 39.2807 11.9667 39.2807C12.5668 39.2807 12.9954 39.0669 13.2525 38.6819V39.1951H14.1526V37.142ZM10.8094 37.142C10.8094 36.4148 11.281 35.816 12.0524 35.816C12.781 35.816 13.2955 36.3721 13.2955 37.142C13.2955 37.8692 12.781 38.468 12.0524 38.468C11.281 38.4251 10.8094 37.8692 10.8094 37.142Z" fill="black"/>
<path d="M18.2246 3.90576H31.7258V28.1163H18.2246V3.90576Z" fill="#FF5F00"/>
<path d="M19.0817 16.0112C19.0817 11.0922 21.3962 6.72909 24.9535 3.90588C22.3392 1.85273 19.039 0.612305 15.4387 0.612305C6.90898 0.612305 0.00842285 7.49895 0.00842285 16.0112C0.00842285 24.5233 6.90898 31.4102 15.4385 31.4102C19.0388 31.4102 22.339 30.1698 24.9535 28.1164C21.3962 25.3361 19.0817 20.9303 19.0817 16.0112Z" fill="#EB001B"/>
<path d="M49.9418 16.0112C49.9418 24.5233 43.0413 31.4102 34.5118 31.4102C30.9115 31.4102 27.6112 30.1698 24.9967 28.1164C28.597 25.2934 30.8687 20.9303 30.8687 16.0112C30.8687 11.0922 28.5541 6.72909 24.9967 3.90588C27.611 1.85273 30.9115 0.612305 34.5118 0.612305C43.0413 0.612305 49.9418 7.54182 49.9418 16.0112Z" fill="#F79E1B"/>
</g>
<defs>
<clipPath id="clip0_417_1520">
<rect width="50" height="38.7755" fill="white" transform="translate(0 0.612305)"/>
</clipPath>
</defs>
</svg>
