<svg width="41" height="33" viewBox="0 0 41 33" fill="none" xmlns="http://www.w3.org/2000/svg">
<g clip-path="url(#clip0_144_1091)">
<path d="M11.4563 6.5H14.75V12.5H7.70625L9.60625 7.75625C9.90625 7 10.6375 6.5 11.4563 6.5ZM17.75 12.5V6.5H22.825C23.4313 6.5 24.0063 6.775 24.3875 7.25L28.5875 12.5H17.75ZM33.7625 12.5625L27.5125 4.75C26.375 3.325 24.65 2.5 22.825 2.5H11.4563C9 2.5 6.79375 3.99375 5.8875 6.26875L3.2875 12.775C1.8 13.3625 0.75 14.8063 0.75 16.5V23.5C0.75 24.6063 1.64375 25.5 2.75 25.5H4.83125C5.30625 28.3375 7.775 30.5 10.75 30.5C13.725 30.5 16.1937 28.3375 16.6687 25.5H24.8312C25.3062 28.3375 27.775 30.5 30.75 30.5C33.725 30.5 36.1938 28.3375 36.6688 25.5H38.75C39.8563 25.5 40.75 24.6063 40.75 23.5V20.5C40.75 16.425 37.7 13.0625 33.7625 12.5625ZM27.9188 23.5C28.0461 23.1235 28.2469 22.7761 28.5097 22.4778C28.7724 22.1796 29.0918 21.9366 29.4492 21.7628C29.8067 21.5891 30.1951 21.4881 30.5919 21.4658C30.9887 21.4434 31.386 21.5001 31.7608 21.6326C32.1355 21.7651 32.4801 21.9708 32.7747 22.2376C33.0692 22.5044 33.3079 22.8271 33.4767 23.1869C33.6454 23.5467 33.7411 23.9365 33.7579 24.3336C33.7748 24.7307 33.7126 25.1272 33.575 25.5C33.4477 25.8765 33.2468 26.224 32.9841 26.5222C32.7213 26.8204 32.402 27.0634 32.0445 27.2372C31.6871 27.4109 31.2986 27.5119 30.9018 27.5342C30.505 27.5566 30.1077 27.4999 29.733 27.3674C29.3583 27.2349 29.0136 27.0292 28.7191 26.7624C28.4245 26.4956 28.1859 26.1729 28.0171 25.8131C27.8483 25.4533 27.7527 25.0635 27.7358 24.6664C27.7189 24.2693 27.7811 23.8729 27.9188 23.5ZM10.75 21.5C11.5456 21.5 12.3087 21.8161 12.8713 22.3787C13.4339 22.9413 13.75 23.7044 13.75 24.5C13.75 25.2957 13.4339 26.0587 12.8713 26.6213C12.3087 27.1839 11.5456 27.5 10.75 27.5C9.95435 27.5 9.19129 27.1839 8.62868 26.6213C8.06607 26.0587 7.75 25.2957 7.75 24.5C7.75 23.7044 8.06607 22.9413 8.62868 22.3787C9.19129 21.8161 9.95435 21.5 10.75 21.5Z" fill="white"/>
</g>
<defs>
<clipPath id="clip0_144_1091">
<rect width="40" height="32" fill="white" transform="translate(0.75 0.5)"/>
</clipPath>
</defs>
</svg>
