<svg width="28" height="24" viewBox="0 0 28 24" fill="none" xmlns="http://www.w3.org/2000/svg">
<path d="M7.49438 4.99998H9.8V9.19998H4.86938L6.19937 5.87936C6.40937 5.34998 6.92125 4.99998 7.49438 4.99998ZM11.9 9.19998V4.99998H15.4525C15.8769 4.99998 16.2794 5.19248 16.5462 5.52498L19.4862 9.19998H11.9ZM23.1087 9.24373L18.7337 3.77498C17.9375 2.77748 16.73 2.19998 15.4525 2.19998H7.49438C5.775 2.19998 4.23062 3.24561 3.59625 4.83811L1.77625 9.39248C0.735 9.80373 0 10.8144 0 12V16.9C0 17.6744 0.625625 18.3 1.4 18.3H2.85688C3.18938 20.2862 4.9175 21.8 7 21.8C9.0825 21.8 10.8106 20.2862 11.1431 18.3H16.8569C17.1894 20.2862 18.9175 21.8 21 21.8C23.0825 21.8 24.8106 20.2862 25.1431 18.3H26.6C27.3744 18.3 28 17.6744 28 16.9V14.8C28 11.9475 25.865 9.59373 23.1087 9.24373ZM19.0181 16.9C19.1072 16.6364 19.2479 16.3932 19.4318 16.1845C19.6157 15.9757 19.8392 15.8056 20.0895 15.684C20.3397 15.5624 20.6116 15.4917 20.8893 15.476C21.1671 15.4604 21.4452 15.5001 21.7075 15.5928C21.9698 15.6856 22.2111 15.8295 22.4173 16.0163C22.6235 16.2031 22.7905 16.4289 22.9087 16.6808C23.0268 16.9327 23.0937 17.2055 23.1056 17.4835C23.1174 17.7614 23.0739 18.039 22.9775 18.3C22.8884 18.5635 22.7478 18.8067 22.5639 19.0155C22.3799 19.2242 22.1564 19.3944 21.9062 19.516C21.6559 19.6376 21.384 19.7083 21.1063 19.7239C20.8285 19.7396 20.5504 19.6999 20.2881 19.6071C20.0258 19.5144 19.7845 19.3705 19.5784 19.1837C19.3722 18.9969 19.2051 18.771 19.087 18.5191C18.9688 18.2673 18.9019 17.9944 18.8901 17.7165C18.8782 17.4385 18.9218 17.161 19.0181 16.9ZM7 15.5C7.55695 15.5 8.0911 15.7212 8.48492 16.1151C8.87875 16.5089 9.1 17.043 9.1 17.6C9.1 18.1569 8.87875 18.6911 8.48492 19.0849C8.0911 19.4787 7.55695 19.7 7 19.7C6.44305 19.7 5.9089 19.4787 5.51508 19.0849C5.12125 18.6911 4.9 18.1569 4.9 17.6C4.9 17.043 5.12125 16.5089 5.51508 16.1151C5.9089 15.7212 6.44305 15.5 7 15.5Z" fill="white"/>
</svg>
