<svg width="73" height="58" viewBox="0 0 73 58" fill="none" xmlns="http://www.w3.org/2000/svg">
<g clip-path="url(#clip0_146_2086)">
<path d="M58.5025 21.75C56.8029 21.7387 55.1832 22.0105 53.6662 22.5316L49.9135 16.3125H59.3123C60.8293 16.3125 62.0498 15.1004 62.0498 13.5938V9.96875C62.0498 8.46211 60.8293 7.25 59.3123 7.25H54.1453C53.3696 7.25 52.6282 7.57852 52.1149 8.14492L47.8376 12.8687L45.237 8.56406C44.7351 7.74844 43.8454 7.25 42.8873 7.25H33.7623C32.7585 7.25 31.9373 8.06562 31.9373 9.0625V10.875C31.9373 11.8719 32.7585 12.6875 33.7623 12.6875H41.336L43.526 16.3125H25.9946C23.9757 13.6957 20.8732 11.7812 14.5998 11.7812H8.26932C6.72947 11.7812 5.44057 13.0273 5.47479 14.5566C5.4976 16.0293 6.71807 17.2188 8.21229 17.2188H14.5998C17.3943 17.2188 19.014 18.4535 20.052 20.0281L18.7631 22.3504C17.2803 21.9086 15.6948 21.7047 14.0523 21.7613C6.37588 22.0332 0.182287 28.275 -0.000212808 35.9102C-0.182713 44.0777 6.42151 50.75 14.5998 50.75C21.3979 50.75 27.1124 46.1281 28.7435 39.875H38.3476C39.9103 39.875 41.1535 38.5836 41.0851 37.0316C40.8456 31.6961 43.0812 26.4172 47.4954 22.8715L48.9212 25.2277C45.7731 27.9125 43.777 31.9 43.8112 36.352C43.8682 44.2363 50.3356 50.682 58.2743 50.75C66.4412 50.8293 73.0796 44.2363 73.0112 36.1254C72.9314 28.241 66.4412 21.8066 58.5025 21.75ZM14.5998 45.3125C9.56963 45.3125 5.47479 41.2457 5.47479 36.25C5.47479 31.2543 9.56963 27.1875 14.5998 27.1875C15.0788 27.1875 15.5579 27.2215 16.0256 27.3008L11.292 35.8422C10.2882 37.6547 11.6114 39.875 13.6873 39.875H22.9606C21.5462 43.0695 18.3296 45.3125 14.5998 45.3125ZM67.5134 36.7484C67.2625 41.3477 63.5212 45.0633 58.9017 45.3012C53.6434 45.5844 49.2748 41.4156 49.2748 36.25C49.2748 33.8258 50.2329 31.6281 51.7956 30.0082L57.4303 39.3426C57.9435 40.2035 59.0728 40.4754 59.9396 39.9656L61.5023 39.0367C62.3692 38.527 62.6429 37.4055 62.1296 36.5445L56.5862 27.3801C57.1793 27.2555 57.7839 27.1988 58.3998 27.1988C63.601 27.1875 67.7871 31.5262 67.5134 36.7484Z" fill="white"/>
</g>
<defs>
<clipPath id="clip0_146_2086">
<rect width="73" height="58" fill="white"/>
</clipPath>
</defs>
</svg>
