<svg width="41" height="33" viewBox="0 0 41 33" fill="none" xmlns="http://www.w3.org/2000/svg">
<g clip-path="url(#clip0_144_1086)">
<path d="M32.8063 12.5C31.875 12.4938 30.9875 12.6438 30.1563 12.9313L28.1 9.5H33.25C34.0813 9.5 34.75 8.83125 34.75 8V6C34.75 5.16875 34.0813 4.5 33.25 4.5H30.4188C29.9938 4.5 29.5875 4.68125 29.3063 4.99375L26.9625 7.6L25.5375 5.225C25.2625 4.775 24.775 4.5 24.25 4.5H19.25C18.7 4.5 18.25 4.95 18.25 5.5V6.5C18.25 7.05 18.7 7.5 19.25 7.5H23.4L24.6 9.5H14.9938C13.8875 8.05625 12.1875 7 8.75001 7H5.28126C4.43751 7 3.73126 7.6875 3.75001 8.53125C3.76251 9.34375 4.43126 10 5.25001 10H8.75001C10.2813 10 11.1688 10.6813 11.7375 11.55L11.0313 12.8313C10.2188 12.5875 9.35001 12.475 8.45001 12.5063C4.24376 12.6563 0.85001 16.1 0.75001 20.3125C0.65001 24.8188 4.26876 28.5 8.75001 28.5C12.475 28.5 15.6063 25.95 16.5 22.5H21.7625C22.6188 22.5 23.3 21.7875 23.2625 20.9313C23.1313 17.9875 24.3563 15.075 26.775 13.1188L27.5563 14.4188C25.8313 15.9 24.7375 18.1 24.7563 20.5563C24.7875 24.9063 28.3313 28.4625 32.6813 28.5C37.1563 28.5438 40.7938 24.9063 40.7563 20.4313C40.7125 16.0813 37.1563 12.5313 32.8063 12.5ZM8.75001 25.5C5.99376 25.5 3.75001 23.2563 3.75001 20.5C3.75001 17.7438 5.99376 15.5 8.75001 15.5C9.01251 15.5 9.27501 15.5188 9.53126 15.5625L6.93751 20.275C6.38751 21.275 7.11251 22.5 8.25001 22.5H13.3313C12.5563 24.2625 10.7938 25.5 8.75001 25.5ZM37.7438 20.775C37.6063 23.3125 35.5563 25.3625 33.025 25.4938C30.1438 25.65 27.75 23.35 27.75 20.5C27.75 19.1625 28.275 17.95 29.1313 17.0563L32.2188 22.2063C32.5 22.6813 33.1188 22.8313 33.5938 22.55L34.45 22.0375C34.925 21.7563 35.075 21.1375 34.7938 20.6625L31.7563 15.6063C32.0813 15.5375 32.4125 15.5063 32.75 15.5063C35.6 15.5 37.8938 17.8938 37.7438 20.775Z" fill="white"/>
</g>
<defs>
<clipPath id="clip0_144_1086">
<rect width="40" height="32" fill="white" transform="translate(0.75 0.5)"/>
</clipPath>
</defs>
</svg>
