<svg width="41" height="41" viewBox="0 0 41 41" fill="none" xmlns="http://www.w3.org/2000/svg">
<path d="M19.5 1.90625C19.1875 1.90625 18.875 2.21875 18.25 2.84375V5.34375H14.4588C13.25 4.09375 13.25 4.09375 12 5.34375C10.75 6.59375 10.75 6.59375 12 7.84375C13.25 9.09375 13.25 9.09375 14.4039 7.84375H18.25V10.3438H20.75V7.84375H24.5549C25.7895 9.09375 25.7893 9.09375 27.0393 7.84375C28.2893 6.59375 28.2893 6.59375 27.0393 5.34375C25.7893 4.09375 25.7895 4.09375 24.5 5.34375H20.75V2.84375C20.125 2.21875 19.8125 1.90625 19.5 1.90625ZM3.25 8V28H5.75V8H3.25ZM8.25 11.75L7 10.5V25.5L8.25 24.25V11.75ZM19.5 11.5938C17 11.5938 15.7227 11.5938 15.6539 14.0938H9.5V21.5938H14.5488C15.75 22.8438 17 24.0938 19.5 24.0938C22 24.0938 23.25 22.8438 24.5 21.5938C29.5 21.5938 29.5 21.5938 29.5 24.0938V26.5938H37V21.5938C37 16.5938 34.5 14.0938 29.5 14.0938H23.25C23.2773 11.5938 22 11.5938 19.5 11.5938ZM28.25 27.8438V29.0938H38.25V27.8438H28.25ZM33.25 30.3438C33.25 30.3438 30.217 34.3797 30.75 36.75C31.0797 38.2156 31.7477 39.0938 33.25 39.0938C34.7523 39.0938 35.4203 38.2156 35.75 36.75C36.283 34.3797 33.25 30.3438 33.25 30.3438Z" fill="white"/>
</svg>
