<svg width="41" height="41" viewBox="0 0 41 41" fill="none" xmlns="http://www.w3.org/2000/svg">
<path d="M27.4167 7.16667H25.75V3.83334H22.4167V7.16667H19.0834V3.83334H15.75V7.16667H14.0834C10.4 7.16667 7.41669 10.15 7.41669 13.8333V30.5C7.41669 34.1833 10.4 37.1667 14.0834 37.1667H27.4167C31.1 37.1667 34.0834 34.1833 34.0834 30.5V13.8333C34.0834 10.15 31.1 7.16667 27.4167 7.16667ZM20.75 30.5C18.45 30.5 16.5834 28.6667 16.5834 26.4C16.5834 24.5833 17.3 24.0833 20.75 20.0833C24.1667 24.05 24.9167 24.5833 24.9167 26.4C24.9167 28.6667 23.05 30.5 20.75 30.5ZM27.4167 17.1667H14.0834V13.8333H27.4167V17.1667Z" fill="white"/>
</svg>
