<svg width="55" height="66" viewBox="0 0 55 66" fill="none" xmlns="http://www.w3.org/2000/svg">
<path d="M88.9427 21.9996C86.359 21.9825 83.8967 22.3949 81.5905 23.1856L75.8856 13.7498H90.1738C92.48 13.7498 94.3354 11.9107 94.3354 9.62484V4.12493C94.3354 1.83903 92.48 0 90.1738 0H82.3188C81.1397 0 80.0126 0.49843 79.2323 1.35779L72.7297 8.52486L68.7762 1.99372C68.0132 0.756237 66.6607 0 65.2042 0H51.3321C49.8062 0 48.5577 1.23748 48.5577 2.74996V5.49991C48.5577 7.01239 49.8062 8.24987 51.3321 8.24987H62.8459L66.1752 13.7498H39.5236C36.4544 9.77953 31.7379 6.87489 22.2009 6.87489H12.5771C10.2362 6.87489 8.27681 8.76548 8.32883 11.0858C8.36351 13.3201 10.2189 15.1248 12.4904 15.1248H22.2009C26.4492 15.1248 28.9115 16.9982 30.4894 19.3872L28.53 22.9106C26.2758 22.2403 23.8655 21.9309 21.3685 22.0168C9.6987 22.4293 0.283055 31.8995 0.00561485 43.4837C-0.271826 55.8757 9.76806 65.9989 22.2009 65.9989C32.5355 65.9989 41.2229 58.9865 43.7025 49.4992H58.3028C60.6784 49.4992 62.5685 47.5398 62.4644 45.1852C62.1003 37.09 65.4989 29.0808 72.2095 23.7012L74.377 27.2761C69.5912 31.3495 66.5567 37.3994 66.6087 44.154C66.6954 56.1163 76.5272 65.8958 88.5959 65.9989C101.011 66.1192 111.103 56.1163 110.999 43.8102C110.878 31.8479 101.011 22.0856 88.9427 21.9996ZM22.2009 57.7491C14.5539 57.7491 8.32883 51.5788 8.32883 43.9993C8.32883 36.4197 14.5539 30.2495 22.2009 30.2495C22.9291 30.2495 23.6574 30.3011 24.3684 30.4214L17.1723 43.3805C15.6463 46.1305 17.6578 49.4992 20.8137 49.4992H34.9111C32.7609 54.346 27.8711 57.7491 22.2009 57.7491ZM102.641 44.7555C102.26 51.7335 96.5723 57.3709 89.5496 57.7319C81.5558 58.1616 74.9146 51.8367 74.9146 43.9993C74.9146 40.3212 76.3711 36.9869 78.7467 34.5291L87.3127 48.6914C88.093 49.9976 89.8097 50.4101 91.1275 49.6367L93.5031 48.2273C94.821 47.4539 95.2371 45.7524 94.4568 44.4462L86.0295 30.5417C86.9312 30.3526 87.8503 30.2667 88.7866 30.2667C96.6937 30.2495 103.057 36.8322 102.641 44.7555Z" fill="#1C1D56" fill-opacity="0.1"/>
</svg>
