<svg width="55" height="66" viewBox="0 0 55 66" fill="none" xmlns="http://www.w3.org/2000/svg">
<path d="M25.2362 9.42857H33V23.5714H16.3969L20.8754 12.3897C21.5826 10.6071 23.3063 9.42857 25.2362 9.42857ZM40.0714 23.5714V9.42857H52.0339C53.4629 9.42857 54.8183 10.0768 55.717 11.1964L65.617 23.5714H40.0714ZM77.8152 23.7188L63.083 5.30357C60.4018 1.94464 56.3357 0 52.0339 0H25.2362C19.4464 0 14.246 3.52098 12.1098 8.88348L5.98125 24.2196C2.475 25.6045 0 29.0076 0 33V49.5C0 52.1076 2.1067 54.2143 4.71429 54.2143H9.62009C10.7397 60.9027 16.5589 66 23.5714 66C30.5839 66 36.4031 60.9027 37.5228 54.2143H56.7629C57.8826 60.9027 63.7018 66 70.7143 66C77.7268 66 83.546 60.9027 84.6656 54.2143H89.5714C92.179 54.2143 94.2857 52.1076 94.2857 49.5V42.4286C94.2857 32.8232 87.0964 24.8973 77.8152 23.7188ZM64.0406 49.5C64.3407 48.6125 64.8142 47.7936 65.4335 47.0906C66.0528 46.3877 66.8056 45.8148 67.6482 45.4053C68.4908 44.9958 69.4063 44.7577 70.3417 44.705C71.277 44.6524 72.2135 44.786 73.0968 45.0983C73.98 45.4107 74.7924 45.8954 75.4867 46.5243C76.1811 47.1532 76.7435 47.9139 77.1414 48.762C77.5393 49.6101 77.7647 50.5289 77.8045 51.4649C77.8443 52.4009 77.6977 53.3354 77.3732 54.2143C77.0731 55.1018 76.5997 55.9207 75.9803 56.6237C75.361 57.3266 74.6082 57.8995 73.7657 58.309C72.9231 58.7185 72.0075 58.9566 71.0722 59.0092C70.1368 59.0619 69.2003 58.9282 68.3171 58.6159C67.4338 58.3036 66.6214 57.8189 65.9271 57.19C65.2328 56.5611 64.6703 55.8004 64.2725 54.9523C63.8746 54.1041 63.6492 53.1854 63.6094 52.2494C63.5696 51.3134 63.7162 50.3789 64.0406 49.5ZM23.5714 44.7857C25.4469 44.7857 27.2455 45.5307 28.5717 46.8569C29.8978 48.183 30.6429 49.9817 30.6429 51.8571C30.6429 53.7326 29.8978 55.5313 28.5717 56.8574C27.2455 58.1836 25.4469 58.9286 23.5714 58.9286C21.696 58.9286 19.8973 58.1836 18.5712 56.8574C17.245 55.5313 16.5 53.7326 16.5 51.8571C16.5 49.9817 17.245 48.183 18.5712 46.8569C19.8973 45.5307 21.696 44.7857 23.5714 44.7857Z" fill="#1C1D56" fill-opacity="0.1"/>
</svg>
