<svg width="54" height="86" viewBox="0 0 54 86" fill="none" xmlns="http://www.w3.org/2000/svg">
<path d="M39.3842 0C38.6268 0 37.8695 0.756303 36.3547 2.26891V8.31933H27.1662C24.2365 5.29412 24.2365 5.29412 21.2069 8.31933C18.1773 11.3445 18.1773 11.3445 21.2069 14.3697C24.2365 17.395 24.2365 17.395 27.0331 14.3697H36.3547V20.4202H42.4138V14.3697H51.6356C54.6278 17.395 54.6273 17.395 57.6568 14.3697C60.6864 11.3445 60.6864 11.3445 57.6568 8.31933C54.6273 5.29412 54.6278 5.29412 51.5025 8.31933H42.4138V2.26891C40.899 0.756303 40.1416 0 39.3842 0ZM0 14.7479V63.1513H6.05911V14.7479H0ZM12.1182 23.8235L9.08867 20.7983V57.1008L12.1182 54.0756V23.8235ZM39.3842 23.4454C33.3251 23.4454 30.2293 23.4454 30.0627 29.4958H15.1478V47.6471H27.3844C30.2956 50.6723 33.3251 53.6975 39.3842 53.6975C45.4433 53.6975 48.4729 50.6723 51.5025 47.6471C63.6207 47.6471 63.6207 47.6471 63.6207 53.6975V59.7479H81.798V47.6471C81.798 35.5462 75.7389 29.4958 63.6207 29.4958H48.4729C48.5392 23.4454 45.4433 23.4454 39.3842 23.4454ZM60.5911 62.7731V65.7983H84.8276V62.7731H60.5911ZM72.7094 68.8235C72.7094 68.8235 65.3583 78.5912 66.6502 84.3277C67.4493 87.8748 69.0682 90 72.7094 90C76.3505 90 77.9694 87.8748 78.7685 84.3277C80.0604 78.5912 72.7094 68.8235 72.7094 68.8235Z" fill="#1C1D56" fill-opacity="0.1"/>
</svg>
