<svg width="55" height="89" viewBox="0 0 55 89" fill="none" xmlns="http://www.w3.org/2000/svg">
<g clip-path="url(#clip0_160_2162)">
<path fill-rule="evenodd" clip-rule="evenodd" d="M33.2013 55.2887L40.3516 48.8598H32.434V40.0098H36.1724L29.1854 33.6626L22.4922 39.9116H25.9204V50.5447C25.9367 53.8328 26.4918 55.3214 29.3486 55.3542L33.2176 55.3051L33.2013 55.2887Z" fill="#1C1D56" fill-opacity="0.1"/>
<path fill-rule="evenodd" clip-rule="evenodd" d="M54.7987 33.7114L47.6484 40.1404H55.566V48.9904H51.8276L58.8146 55.3376L65.5078 49.0886H62.0796V38.4554C62.0633 35.1673 61.5083 33.6787 58.6514 33.646L54.7824 33.6951L54.7987 33.7114Z" fill="#1C1D56" fill-opacity="0.1"/>
<path fill-rule="evenodd" clip-rule="evenodd" d="M54.766 55.3213L48.3504 48.1562V56.0902H39.5186V52.3441L33.1846 59.3456L39.4207 66.0526V62.6173H50.0318C53.3131 62.6009 54.7987 62.0447 54.8313 59.182L54.7824 55.305L54.766 55.3213Z" fill="#1C1D56" fill-opacity="0.1"/>
<path fill-rule="evenodd" clip-rule="evenodd" d="M33.2338 33.679L39.6494 40.8441V32.9102H48.4812V36.6563L54.8152 29.6548L48.5791 22.9478V26.3831H37.968C34.6867 26.3994 33.2011 26.9556 33.1685 29.8184L33.2174 33.6954L33.2338 33.679Z" fill="#1C1D56" fill-opacity="0.1"/>
<path fill-rule="evenodd" clip-rule="evenodd" d="M4.69773 24.7632C3.78353 26.2027 3.03259 26.2191 2.34695 32.37C1.6613 38.5208 5.56294 44.9988 5.56294 44.9988C5.56294 44.9988 5.15482 42.0216 7.03218 39.5841C8.89322 37.1303 12.6153 33.4987 14.362 31.0449C16.1088 28.5911 16.5659 25.4666 16.5659 25.4666C14.9497 26.2027 13.1703 26.5954 11.293 26.5954C8.87689 26.5954 6.62406 25.9246 4.71405 24.7632H4.69773Z" fill="#1C1D56" fill-opacity="0.1"/>
<path fill-rule="evenodd" clip-rule="evenodd" d="M20.3043 13.9504C20.3043 18.9561 16.2557 23.0131 11.2603 23.0131C6.26488 23.0131 2.21631 18.9561 2.21631 13.9504C2.21631 8.94464 6.26488 4.8877 11.2603 4.8877C16.2557 4.8877 20.3043 8.94464 20.3043 13.9504Z" fill="#1C1D56" fill-opacity="0.1"/>
<path fill-rule="evenodd" clip-rule="evenodd" d="M21.5612 6.31075C21.5612 6.31075 28.5156 1.28864 35.4864 0.307123C42.4734 -0.674395 52.4805 1.01055 52.4805 1.01055C52.4805 1.01055 47.6484 1.35408 44.6446 3.12081C41.6408 4.88754 39.2411 7.58672 35.6823 10.8094C32.1234 14.032 29.6094 16.1259 27.0954 17.3201C25.4792 18.089 24.0753 18.2689 23.308 18.3016C23.7978 16.9439 24.059 15.4879 24.059 13.9502C24.059 11.0875 23.1284 8.45373 21.5449 6.31075H21.5612Z" fill="#1C1D56" fill-opacity="0.1"/>
<path fill-rule="evenodd" clip-rule="evenodd" d="M24.7124 84.3087C26.149 85.2248 26.1653 85.9773 32.3035 86.6644C38.4416 87.3515 44.9063 83.4417 44.9063 83.4417C44.9063 83.4417 41.9351 83.8507 39.5027 81.9695C37.054 80.1046 33.4299 76.3748 30.9812 74.6244C28.5324 72.8741 25.4144 72.416 25.4144 72.416C26.149 74.0355 26.5408 75.8186 26.5408 77.6999C26.5408 80.1209 25.8715 82.3784 24.7124 84.2924V84.3087Z" fill="#1C1D56" fill-opacity="0.1"/>
<path fill-rule="evenodd" clip-rule="evenodd" d="M13.9053 68.6699C18.9007 68.6699 22.9493 72.7269 22.9493 77.7326C22.9493 82.7384 18.9007 86.7953 13.9053 86.7953C8.9099 86.7953 4.86133 82.7384 4.86133 77.7326C4.86133 72.7269 8.9099 68.6699 13.9053 68.6699Z" fill="#1C1D56" fill-opacity="0.1"/>
<path fill-rule="evenodd" clip-rule="evenodd" d="M6.29772 67.4266C6.29772 67.4266 1.28598 60.4579 0.306489 53.4727C-0.673003 46.4712 1.00846 36.4434 1.00846 36.4434C1.00846 36.4434 1.35128 41.2855 3.11437 44.2955C4.87745 47.3055 7.57106 49.7102 10.7871 53.2764C14.0031 56.8426 16.0926 59.3618 17.2844 61.8811C18.0516 63.5006 18.2312 64.9074 18.2638 65.6763C16.9089 65.1855 15.456 64.9238 13.9214 64.9238C11.0646 64.9238 8.43627 65.8562 6.29772 67.443V67.4266Z" fill="#1C1D56" fill-opacity="0.1"/>
<path fill-rule="evenodd" clip-rule="evenodd" d="M66.4549 82.6891C66.4549 82.6891 59.5006 87.7112 52.5298 88.6928C45.5428 89.6743 35.5356 87.9893 35.5356 87.9893C35.5356 87.9893 40.3678 87.6458 43.3716 85.8791C46.3754 84.1123 48.7751 81.4132 52.3339 78.1905C55.8928 74.9678 58.4068 72.8739 60.9208 71.6798C62.537 70.9109 63.9409 70.731 64.7082 70.6982C64.2184 72.056 63.9572 73.5119 63.9572 75.0496C63.9572 77.9124 64.8878 80.5461 66.4713 82.6891H66.4549Z" fill="#1C1D56" fill-opacity="0.1"/>
<path fill-rule="evenodd" clip-rule="evenodd" d="M63.3042 4.69104C61.8676 3.77495 61.8513 3.02246 55.7131 2.33539C49.575 1.64833 43.1104 5.55805 43.1104 5.55805C43.1104 5.55805 46.0815 5.14908 48.5139 7.03032C50.9626 8.89521 54.5867 12.625 57.0355 14.3754C59.4842 16.1257 62.6022 16.5838 62.6022 16.5838C61.8676 14.9643 61.4758 13.1812 61.4758 11.2999C61.4758 8.87885 62.1451 6.62136 63.3042 4.7074V4.69104Z" fill="#1C1D56" fill-opacity="0.1"/>
</g>
<defs>
<clipPath id="clip0_160_2162">
<rect width="88" height="89" fill="white"/>
</clipPath>
</defs>
</svg>
