<svg width="23" height="23" viewBox="0 0 23 23" fill="none" xmlns="http://www.w3.org/2000/svg">
<path d="M6.70837 6.70834H5.75004C5.24171 6.70834 4.7542 6.91028 4.39475 7.26972C4.03531 7.62917 3.83337 8.11668 3.83337 8.62501V17.25C3.83337 17.7583 4.03531 18.2459 4.39475 18.6053C4.7542 18.9647 5.24171 19.1667 5.75004 19.1667H14.375C14.8834 19.1667 15.3709 18.9647 15.7303 18.6053C16.0898 18.2459 16.2917 17.7583 16.2917 17.25V16.2917" stroke="#141515" stroke-width="2" stroke-linecap="round" stroke-linejoin="round"/>
<path d="M15.3333 4.79168L18.2083 7.66668M19.5356 6.31064C19.9131 5.9332 20.1251 5.42129 20.1251 4.88751C20.1251 4.35374 19.9131 3.84182 19.5356 3.46439C19.1582 3.08695 18.6463 2.87491 18.1125 2.87491C17.5787 2.87491 17.0668 3.08695 16.6894 3.46439L8.625 11.5V14.375H11.5L19.5356 6.31064Z" stroke="#141515" stroke-width="2" stroke-linecap="round" stroke-linejoin="round"/>
</svg>
