<svg width="16" height="18" viewBox="0 0 16 18" fill="none" xmlns="http://www.w3.org/2000/svg">
<path fill-rule="evenodd" clip-rule="evenodd" d="M3.6129 4.3871C3.6129 3.81097 3.72638 3.24049 3.94685 2.70823C4.16732 2.17596 4.49047 1.69233 4.89785 1.28495C5.30523 0.877571 5.78886 0.55442 6.32113 0.333948C6.8534 0.113475 7.42388 0 8 0C8.57612 0 9.1466 0.113475 9.67887 0.333948C10.2111 0.55442 10.6948 0.877571 11.1021 1.28495C11.5095 1.69233 11.8327 2.17596 12.0531 2.70823C12.2736 3.24049 12.3871 3.81097 12.3871 4.3871C12.3871 5.55063 11.9249 6.6665 11.1021 7.48924C10.2794 8.31198 9.16353 8.77419 8 8.77419C6.83647 8.77419 5.72059 8.31198 4.89785 7.48924C4.07511 6.6665 3.6129 5.55063 3.6129 4.3871ZM8 1.54839C7.24713 1.54839 6.52509 1.84746 5.99273 2.37983C5.46037 2.91219 5.16129 3.63422 5.16129 4.3871C5.16129 5.13997 5.46037 5.86201 5.99273 6.39437C6.52509 6.92673 7.24713 7.22581 8 7.22581C8.75287 7.22581 9.47491 6.92673 10.0073 6.39437C10.5396 5.86201 10.8387 5.13997 10.8387 4.3871C10.8387 3.63422 10.5396 2.91219 10.0073 2.37983C9.47491 1.84746 8.75287 1.54839 8 1.54839ZM3.87097 11.871C3.25498 11.871 2.66422 12.1157 2.22866 12.5512C1.79309 12.9868 1.54839 13.5776 1.54839 14.1935V15.4199C1.54839 15.4385 1.56181 15.455 1.58039 15.4581C5.83226 16.1517 10.1688 16.1517 14.4196 15.4581C14.4286 15.4566 14.4368 15.4519 14.4427 15.4449C14.4486 15.4379 14.4517 15.429 14.4516 15.4199V14.1935C14.4516 13.5776 14.2069 12.9868 13.7713 12.5512C13.3358 12.1157 12.745 11.871 12.129 11.871H11.7781C11.7504 11.8708 11.7229 11.8749 11.6965 11.8834L10.8036 12.1755C8.98185 12.7703 7.01814 12.7703 5.19639 12.1755L4.30245 11.8834C4.27676 11.8751 4.24994 11.871 4.22297 11.871H3.87097ZM0 14.1935C0 13.1669 0.407833 12.1823 1.13378 11.4564C1.85973 10.7304 2.84432 10.3226 3.87097 10.3226H4.22194C4.4129 10.3226 4.60284 10.3535 4.78348 10.4114L5.67742 10.7035C7.18662 11.1961 8.81338 11.1961 10.3226 10.7035L11.2165 10.4114C11.3972 10.3525 11.5871 10.3226 11.777 10.3226H12.129C13.1557 10.3226 14.1403 10.7304 14.8662 11.4564C15.5922 12.1823 16 13.1669 16 14.1935V15.4199C16 16.1982 15.4364 16.8609 14.6684 16.9858C10.252 17.7068 5.74797 17.7068 1.33161 16.9858C0.959921 16.9253 0.621875 16.7345 0.377919 16.4476C0.133963 16.1608 5.73364e-06 15.7965 0 15.4199V14.1935Z" fill="#7B7B7B"/>
</svg>
