<svg width="50" height="18" viewBox="0 0 50 18" fill="none" xmlns="http://www.w3.org/2000/svg">
<g clip-path="url(#clip0_496_1490)">
<path d="M25.8588 6.05629C25.8303 8.30548 27.8633 9.56054 29.3947 10.3068C30.9682 11.0724 31.4967 11.5634 31.4904 12.2482C31.4787 13.296 30.2354 13.7585 29.0719 13.7765C27.042 13.8079 25.8618 13.2285 24.9235 12.7902L24.1923 16.2118C25.1337 16.6456 26.8768 17.0239 28.6844 17.0405C32.9275 17.0405 35.7034 14.946 35.7185 11.6986C35.7351 7.57717 30.0178 7.34904 30.0568 5.50688C30.0703 4.94829 30.6033 4.35221 31.7713 4.20065C32.3494 4.12408 33.9453 4.06549 35.7546 4.89868L36.4648 1.58818C35.4917 1.23389 34.2412 0.894632 32.6841 0.894632C28.6904 0.894632 25.8815 3.01765 25.8588 6.05629ZM43.2885 1.17978C42.5137 1.17978 41.8608 1.63173 41.5694 2.32528L35.5083 16.7974H39.7483L40.5921 14.4656H45.7732L46.2627 16.7974H49.9998L46.7387 1.17978H43.2885ZM43.8817 5.39868L45.1053 11.2633H41.7542L43.8817 5.39868ZM20.7181 1.17998L17.3759 16.7972H21.4163L24.7569 1.17959L20.7181 1.17998ZM14.741 1.17998L10.5356 11.8097L8.83444 2.77137C8.63483 1.7624 7.84656 1.17978 6.97118 1.17978H0.0966541L0.000366211 1.63329C1.41168 1.93954 3.01517 2.43348 3.98665 2.96199C4.58117 3.28484 4.7507 3.56706 4.94601 4.33424L8.16804 16.7974H12.4377L18.9837 1.17978L14.741 1.17998Z" fill="url(#paint0_linear_496_1490)"/>
</g>
<defs>
<linearGradient id="paint0_linear_496_1490" x1="2298.67" y1="49.4292" x2="2345.41" y2="-1608.78" gradientUnits="userSpaceOnUse">
<stop stop-color="#222357"/>
<stop offset="1" stop-color="#254AA5"/>
</linearGradient>
<clipPath id="clip0_496_1490">
<rect width="50" height="16.2107" fill="white" transform="translate(0 0.894531)"/>
</clipPath>
</defs>
</svg>
